<svg width="52" height="52" viewBox="0 0 52 52" fill="none" xmlns="http://www.w3.org/2000/svg">
<g clip-path="url(#clip0_7649_13470)">
<path d="M51.8022 26.0925C51.8022 11.7865 40.2067 0.1875 25.905 0.1875C11.6033 0.1875 0.0078125 11.7865 0.0078125 26.0925C0.0078125 39.0231 9.47729 49.7389 21.8586 51.6818V33.5807H15.2831V26.0901H21.8586V20.3869C21.8586 13.8953 25.7262 10.3083 31.6412 10.3083C34.4729 10.3083 37.4382 10.815 37.4382 10.815V17.1901H34.1703C30.9525 17.1901 29.949 19.1864 29.949 21.2353V26.0925H37.1315L35.9831 33.5831H29.949V51.6842C42.3336 49.7397 51.8022 39.0215 51.8022 26.0925Z" fill="#333333"/>
</g>
<defs>
<clipPath id="clip0_7649_13470">
<rect width="51.81" height="51.81" fill="white" transform="translate(0 0.03125)"/>
</clipPath>
</defs>
</svg>
