<svg width="32" height="33" viewBox="0 0 32 33" fill="none" xmlns="http://www.w3.org/2000/svg">
<path d="M22.6667 26.6162H6.66667V10.3229H16V7.65625H6.66667C5.2 7.65625 4 8.85625 4 10.3229V26.3229C4 27.7896 5.2 28.9896 6.66667 28.9896H22.6667C24.1333 28.9896 25.3333 27.7896 25.3333 26.3229V16.9896H22.6667V26.6162Z" fill="url(#paint0_linear_4285_3363)"/>
<path d="M25.3335 3.65625H22.6668V7.65625H18.6668C18.6802 7.66958 18.6668 10.3229 18.6668 10.3229H22.6668V14.3096C22.6802 14.3229 25.3335 14.3096 25.3335 14.3096V10.3229H29.3335V7.65625H25.3335V3.65625ZM9.3335 12.9896H20.0002V15.6562H9.3335V12.9896ZM9.3335 16.9896V19.6562H20.0002V16.9896H16.0002H9.3335ZM9.3335 20.9896H20.0002V23.6562H9.3335V20.9896Z" fill="url(#paint1_linear_4285_3363)"/>
<defs>
<linearGradient id="paint0_linear_4285_3363" x1="-6.67514" y1="20.9139" x2="16.0939" y2="41.9822" gradientUnits="userSpaceOnUse">
<stop stop-color="#43CEA2"/>
<stop offset="0.931667" stop-color="#185A9D"/>
</linearGradient>
<linearGradient id="paint1_linear_4285_3363" x1="-0.674444" y1="16.0853" x2="20.6715" y2="35.8368" gradientUnits="userSpaceOnUse">
<stop stop-color="#43CEA2"/>
<stop offset="0.931667" stop-color="#185A9D"/>
</linearGradient>
</defs>
</svg>
