<svg width="61" height="61" viewBox="0 0 61 61" fill="none" xmlns="http://www.w3.org/2000/svg">
<g clip-path="url(#clip0_4031_4414)">
<path d="M22.875 0H0V22.875H22.875V0ZM19.0625 19.0625H3.8125V3.8125H19.0625V19.0625Z" fill="#475367"/>
<path d="M7.625 7.625H15.25V15.25H7.625V7.625ZM0 61H22.875V38.125H0V61ZM3.8125 41.9375H19.0625V57.1875H3.8125V41.9375Z" fill="#475367"/>
<path d="M7.625 45.75H15.25V53.375H7.625V45.75ZM38.125 0V22.875H61V0H38.125ZM57.1875 19.0625H41.9375V3.8125H57.1875V19.0625Z" fill="#475367"/>
<path d="M45.75 7.625H53.375V15.25H45.75V7.625ZM7.625 26.6875H0V34.3125H11.4375V30.5H7.625V26.6875ZM26.6875 34.3125H34.3125V41.9375H26.6875V34.3125ZM11.4375 26.6875H19.0625V30.5H11.4375V26.6875ZM34.3125 45.75H26.6875V49.5625H30.5V53.375H34.3125V49.5625V45.75ZM22.875 26.6875V30.5H19.0625V34.3125H26.6875V26.6875H22.875ZM30.5 15.25H34.3125V22.875H30.5V15.25ZM34.3125 30.5V34.3125H41.9375V26.6875H30.5V30.5H34.3125ZM26.6875 22.875H30.5V26.6875H26.6875V22.875ZM34.3125 53.375H41.9375V61H34.3125V53.375ZM26.6875 53.375H30.5V61H26.6875V53.375ZM34.3125 41.9375H38.125V45.75H34.3125V41.9375ZM34.3125 11.4375V3.8125H30.5V0H26.6875V15.25H30.5V11.4375H34.3125ZM45.75 53.375H49.5625V61H45.75V53.375ZM45.75 45.75H53.375V49.5625H45.75V45.75ZM41.9375 49.5625H45.75V53.375H41.9375V49.5625ZM38.125 45.75H41.9375V49.5625H38.125V45.75ZM53.375 38.125V41.9375H57.1875V45.75H61V38.125H57.1875H53.375ZM57.1875 49.5625H53.375V61H61V53.375H57.1875V49.5625ZM38.125 38.125V41.9375H49.5625V34.3125H41.9375V38.125H38.125ZM45.75 26.6875V30.5H53.375V34.3125H61V26.6875H53.375H45.75Z" fill="#475367"/>
</g>
<defs>
<clipPath id="clip0_4031_4414">
<rect width="61" height="61" fill="white"/>
</clipPath>
</defs>
</svg>
