<svg width="32" height="33" viewBox="0 0 32 33" fill="none" xmlns="http://www.w3.org/2000/svg">
<path d="M5.33333 15.6549H13.3333C13.687 15.6549 14.0261 15.5145 14.2761 15.2644C14.5262 15.0144 14.6667 14.6752 14.6667 14.3216V6.32161C14.6667 5.96799 14.5262 5.62885 14.2761 5.37881C14.0261 5.12876 13.687 4.98828 13.3333 4.98828H5.33333C4.97971 4.98828 4.64057 5.12876 4.39052 5.37881C4.14048 5.62885 4 5.96799 4 6.32161V14.3216C4 14.6752 4.14048 15.0144 4.39052 15.2644C4.64057 15.5145 4.97971 15.6549 5.33333 15.6549ZM6.66667 7.65495H12V12.9883H6.66667V7.65495ZM26.6667 4.98828H18.6667C18.313 4.98828 17.9739 5.12876 17.7239 5.37881C17.4738 5.62885 17.3333 5.96799 17.3333 6.32161V14.3216C17.3333 14.6752 17.4738 15.0144 17.7239 15.2644C17.9739 15.5145 18.313 15.6549 18.6667 15.6549H26.6667C27.0203 15.6549 27.3594 15.5145 27.6095 15.2644C27.8595 15.0144 28 14.6752 28 14.3216V6.32161C28 5.96799 27.8595 5.62885 27.6095 5.37881C27.3594 5.12876 27.0203 4.98828 26.6667 4.98828ZM25.3333 12.9883H20V7.65495H25.3333V12.9883ZM13.3333 28.9883C13.687 28.9883 14.0261 28.8478 14.2761 28.5978C14.5262 28.3477 14.6667 28.0086 14.6667 27.6549V19.6549C14.6667 19.3013 14.5262 18.9622 14.2761 18.7121C14.0261 18.4621 13.687 18.3216 13.3333 18.3216H5.33333C4.97971 18.3216 4.64057 18.4621 4.39052 18.7121C4.14048 18.9622 4 19.3013 4 19.6549V27.6549C4 28.0086 4.14048 28.3477 4.39052 28.5978C4.64057 28.8478 4.97971 28.9883 5.33333 28.9883H13.3333ZM6.66667 20.9883H12V26.3216H6.66667V20.9883ZM24 19.6549H21.3333V22.3216H18.6667V24.9883H21.3333V27.6549H24V24.9883H26.6667V22.3216H24V19.6549Z" fill="url(#paint0_linear_4282_359)"/>
<defs>
<linearGradient id="paint0_linear_4282_359" x1="-8.00953" y1="19.9032" x2="17.6056" y2="43.605" gradientUnits="userSpaceOnUse">
<stop stop-color="#43CEA2"/>
<stop offset="0.931667" stop-color="#185A9D"/>
</linearGradient>
</defs>
</svg>
