<svg width="33" height="33" viewBox="0 0 33 33" fill="none" xmlns="http://www.w3.org/2000/svg">
<path d="M16.6172 31.6549C22.14 31.6549 26.6172 27.1777 26.6172 21.6549C26.6172 20.5009 26.3101 19.3925 25.9505 18.3611C23.7283 20.5569 22.0395 21.6549 20.8839 21.6549C26.2111 12.3216 23.2839 8.32161 15.2839 2.98828C15.9505 9.65429 11.5559 12.6866 9.76624 14.3704C7.82767 16.1943 6.61719 18.7832 6.61719 21.6549C6.61719 27.1777 11.0943 31.6549 16.6172 31.6549ZM17.5631 7.96825C21.8853 11.6353 21.906 14.4847 18.5679 20.3331C17.5532 22.1108 18.8369 24.3216 20.8839 24.3216C21.8017 24.3216 22.7293 24.0539 23.7091 23.5284C22.8811 26.6709 20.0197 28.9883 16.6172 28.9883C12.5671 28.9883 9.28385 25.7051 9.28385 21.6549C9.28385 19.6027 10.1276 17.6917 11.5935 16.3125C11.7615 16.1545 12.6138 15.3991 12.6502 15.3664C13.2153 14.8577 13.6809 14.41 14.1411 13.9173C15.7816 12.1607 16.96 10.21 17.5631 7.96825Z" fill="url(#paint0_linear_4282_3246)"/>
<defs>
<linearGradient id="paint0_linear_4282_3246" x1="-3.39075" y1="20.8033" x2="24.5762" y2="38.8577" gradientUnits="userSpaceOnUse">
<stop stop-color="#43CEA2"/>
<stop offset="0.931667" stop-color="#185A9D"/>
</linearGradient>
</defs>
</svg>
