<svg width="32" height="33" viewBox="0 0 32 33" fill="none" xmlns="http://www.w3.org/2000/svg">
<g clip-path="url(#clip0_4282_3251)">
<path d="M16 28.9883V30.9883H20V32.9883H10V30.9883H14V28.9883H0V10.9883H16L13.9844 12.9883H2V26.9883H28V14.9883L30 12.9883V28.9883H16ZM8 22.9883C8.28125 22.9883 8.54167 22.9362 8.78125 22.832C9.02083 22.7279 9.22917 22.5872 9.40625 22.4102C9.58333 22.2331 9.72917 22.0195 9.84375 21.7695C9.95833 21.5195 10.0104 21.2591 10 20.9883C10 20.4779 10.0885 19.9935 10.2656 19.5352C10.4427 19.0768 10.6927 18.6706 11.0156 18.3164C11.3385 17.9622 11.7135 17.6706 12.1406 17.4414C12.5677 17.2122 13.0417 17.0664 13.5625 17.0039L24.6719 5.89453C24.9635 5.60286 25.3021 5.37891 25.6875 5.22266C26.0729 5.06641 26.4688 4.98828 26.875 4.98828C27.3021 4.98828 27.7031 5.06641 28.0781 5.22266C28.4531 5.37891 28.7865 5.60286 29.0781 5.89453C29.3698 6.1862 29.5885 6.51432 29.7344 6.87891C29.8802 7.24349 29.9635 7.65495 29.9844 8.11328C29.9844 8.51953 29.9062 8.91536 29.75 9.30078C29.5938 9.6862 29.3698 10.0247 29.0781 10.3164L17.9688 21.4258C17.9167 21.9258 17.776 22.3945 17.5469 22.832C17.3177 23.2695 17.026 23.6445 16.6719 23.957C16.3177 24.2695 15.9115 24.5195 15.4531 24.707C14.9948 24.8945 14.5104 24.9883 14 24.9883H4V22.9883H8ZM26.875 6.98828C26.5729 6.98828 26.3125 7.09766 26.0938 7.31641L19.1406 14.2695C19.7344 14.7279 20.2604 15.2539 20.7188 15.8477L27.6719 8.89453C27.8906 8.67578 28 8.41536 28 8.11328C28 7.80078 27.8906 7.53516 27.6719 7.31641C27.4531 7.09766 27.1875 6.98828 26.875 6.98828ZM16.2812 17.1289C16.9167 17.5456 17.4427 18.0716 17.8594 18.707L19.2969 17.2852C18.8594 16.6602 18.3281 16.1289 17.7031 15.6914L16.2812 17.1289ZM16 20.9883C16 20.707 15.9479 20.4466 15.8438 20.207C15.7396 19.9674 15.599 19.7591 15.4219 19.582C15.2448 19.4049 15.0312 19.2591 14.7812 19.1445C14.5312 19.0299 14.2708 18.9779 14 18.9883C13.7188 18.9883 13.4583 19.0404 13.2188 19.1445C12.9792 19.2487 12.7708 19.3893 12.5938 19.5664C12.4167 19.7435 12.2708 19.957 12.1562 20.207C12.0417 20.457 11.9896 20.7174 12 20.9883C12 21.6966 11.8229 22.3633 11.4688 22.9883H14C14.2708 22.9883 14.526 22.9362 14.7656 22.832C15.0052 22.7279 15.2188 22.5872 15.4062 22.4102C15.5938 22.2331 15.7396 22.0195 15.8438 21.7695C15.9479 21.5195 16 21.2591 16 20.9883Z" fill="url(#paint0_linear_4282_3251)"/>
</g>
<defs>
<linearGradient id="paint0_linear_4282_3251" x1="-15.0119" y1="22.389" x2="14.9614" y2="52.1045" gradientUnits="userSpaceOnUse">
<stop stop-color="#43CEA2"/>
<stop offset="0.931667" stop-color="#185A9D"/>
</linearGradient>
<clipPath id="clip0_4282_3251">
<rect width="32" height="32" fill="white" transform="translate(0 0.988281)"/>
</clipPath>
</defs>
</svg>
