<svg width="33" height="33" viewBox="0 0 33 33" fill="none" xmlns="http://www.w3.org/2000/svg">
<path d="M5.95085 8.98958C6.65809 8.98958 7.33637 8.70863 7.83646 8.20853C8.33656 7.70844 8.61751 7.03016 8.61751 6.32292C8.61751 5.61567 8.33656 4.9374 7.83646 4.4373C7.33637 3.9372 6.65809 3.65625 5.95085 3.65625C5.2436 3.65625 4.56533 3.9372 4.06523 4.4373C3.56513 4.9374 3.28418 5.61567 3.28418 6.32292C3.28418 7.03016 3.56513 7.70844 4.06523 8.20853C4.56533 8.70863 5.2436 8.98958 5.95085 8.98958ZM7.28418 28.9896C8.34505 28.9896 9.36246 28.5682 10.1126 27.818C10.8628 27.0679 11.2842 26.0504 11.2842 24.9896C11.2842 23.9287 10.8628 22.9113 10.1126 22.1612C9.36246 21.411 8.34505 20.9896 7.28418 20.9896C6.22331 20.9896 5.2059 21.411 4.45575 22.1612C3.70561 22.9113 3.28418 23.9287 3.28418 24.9896C3.28418 26.0504 3.70561 27.0679 4.45575 27.818C5.2059 28.5682 6.22331 28.9896 7.28418 28.9896ZM25.9508 30.3229C27.0117 30.3229 28.0291 29.9015 28.7793 29.1513C29.5294 28.4012 29.9508 27.3838 29.9508 26.3229C29.9508 25.262 29.5294 24.2446 28.7793 23.4945C28.0291 22.7443 27.0117 22.3229 25.9508 22.3229C24.89 22.3229 23.8726 22.7443 23.1224 23.4945C22.3723 24.2446 21.9508 25.262 21.9508 26.3229C21.9508 27.3838 22.3723 28.4012 23.1224 29.1513C23.8726 29.9015 24.89 30.3229 25.9508 30.3229ZM15.2842 19.6562C16.6987 19.6562 18.0552 19.0943 19.0554 18.0942C20.0556 17.094 20.6175 15.7374 20.6175 14.3229C20.6175 12.9084 20.0556 11.5519 19.0554 10.5517C18.0552 9.55149 16.6987 8.98958 15.2842 8.98958C13.8697 8.98958 12.5131 9.55149 11.5129 10.5517C10.5127 11.5519 9.95085 12.9084 9.95085 14.3229C9.95085 15.7374 10.5127 17.094 11.5129 18.0942C12.5131 19.0943 13.8697 19.6562 15.2842 19.6562ZM23.2842 8.98958C23.9914 8.98958 24.6697 8.70863 25.1698 8.20853C25.6699 7.70844 25.9508 7.03016 25.9508 6.32292C25.9508 5.61567 25.6699 4.9374 25.1698 4.4373C24.6697 3.9372 23.9914 3.65625 23.2842 3.65625C22.5769 3.65625 21.8987 3.9372 21.3986 4.4373C20.8985 4.9374 20.6175 5.61567 20.6175 6.32292C20.6175 7.03016 20.8985 7.70844 21.3986 8.20853C21.8987 8.70863 22.5769 8.98958 23.2842 8.98958Z" stroke="url(#paint0_linear_4282_3257)" stroke-width="2" stroke-linecap="round" stroke-linejoin="round"/>
<path d="M7.95117 8.32422L10.6178 10.9909M20.6178 8.99089L19.2845 10.3242M23.2845 23.3242L19.2845 18.3242M9.95117 21.6576L12.6178 18.9909" stroke="url(#paint1_linear_4282_3257)" stroke-width="2" stroke-linecap="round" stroke-linejoin="round"/>
<defs>
<linearGradient id="paint0_linear_4282_3257" x1="-10.0597" y1="20.2284" x2="18.4016" y2="46.5637" gradientUnits="userSpaceOnUse">
<stop stop-color="#43CEA2"/>
<stop offset="0.931667" stop-color="#185A9D"/>
</linearGradient>
<linearGradient id="paint1_linear_4282_3257" x1="0.278418" y1="17.646" x2="16.3113" y2="32.811" gradientUnits="userSpaceOnUse">
<stop stop-color="#43CEA2"/>
<stop offset="0.931667" stop-color="#185A9D"/>
</linearGradient>
</defs>
</svg>
