<svg width="24" height="24" viewBox="0 0 24 24" fill="none" xmlns="http://www.w3.org/2000/svg">
<g clip-path="url(#clip0_8296_13576)">
<path d="M22.1603 5.65495C21.3969 5.99264 20.5873 6.21442 19.7583 6.31295C20.6321 5.79038 21.2861 4.96796 21.5983 3.99895C20.7783 4.48695 19.8793 4.82895 18.9423 5.01395C18.313 4.34053 17.4787 3.89391 16.5693 3.74353C15.6599 3.59316 14.7263 3.74744 13.9136 4.1824C13.1009 4.61737 12.4547 5.30863 12.0755 6.14874C11.6962 6.98885 11.6051 7.93073 11.8163 8.82795C10.1535 8.7446 8.52668 8.31247 7.04163 7.55961C5.55659 6.80675 4.24647 5.75 3.19634 4.45795C2.82463 5.0964 2.6293 5.82218 2.63034 6.56095C2.63034 8.01095 3.36834 9.29195 4.49034 10.042C3.82635 10.021 3.17698 9.84173 2.59634 9.51895V9.57095C2.59654 10.5367 2.93071 11.4726 3.54219 12.22C4.15367 12.9675 5.00483 13.4804 5.95134 13.672C5.33496 13.839 4.68865 13.8636 4.06134 13.7439C4.32821 14.5752 4.84835 15.3021 5.54894 15.8231C6.24952 16.344 7.09547 16.6327 7.96834 16.6489C7.10082 17.3303 6.10752 17.8339 5.04522 18.1311C3.98293 18.4283 2.87247 18.5132 1.77734 18.3809C3.68904 19.6104 5.91444 20.2631 8.18734 20.2609C15.8803 20.2609 20.0873 13.888 20.0873 8.36095C20.0873 8.18095 20.0823 7.99895 20.0743 7.82095C20.8932 7.22912 21.5999 6.49597 22.1613 5.65595L22.1603 5.65495Z" fill="#6A7C94"/>
</g>
<defs>
<clipPath id="clip0_8296_13576">
<rect width="24" height="24" fill="white"/>
</clipPath>
</defs>
</svg>
