<svg width="174" height="365" viewBox="0 0 174 365" fill="none" xmlns="http://www.w3.org/2000/svg">
<rect y="0.332031" width="174" height="364" rx="24" fill="#FCFCFC"/>
<path d="M55.7322 36.7887C55.647 35.9293 55.2813 35.2617 54.6349 34.7859C53.9886 34.31 53.1115 34.0721 52.0036 34.0721C51.2507 34.0721 50.6151 34.1786 50.0966 34.3917C49.5781 34.5977 49.1804 34.8853 48.9034 35.2546C48.6335 35.6239 48.4986 36.043 48.4986 36.5117C48.4844 36.9023 48.5661 37.2433 48.7436 37.5344C48.9283 37.8256 49.1804 38.0778 49.5 38.2908C49.8196 38.4968 50.1889 38.6779 50.608 38.8342C51.027 38.9833 51.4744 39.1112 51.9503 39.2177L53.9105 39.6864C54.8622 39.8995 55.7358 40.1836 56.5312 40.5387C57.3267 40.8938 58.0156 41.3306 58.598 41.8491C59.1804 42.3675 59.6314 42.9783 59.951 43.6815C60.2777 44.3846 60.4446 45.1907 60.4517 46.0998C60.4446 47.435 60.1037 48.5927 59.429 49.5728C58.7614 50.5458 57.7955 51.3022 56.5312 51.842C55.2741 52.3746 53.7578 52.641 51.9822 52.641C50.2209 52.641 48.6868 52.3711 47.38 51.8313C46.0803 51.2915 45.0646 50.4925 44.3331 49.4343C43.6087 48.369 43.2287 47.0515 43.1932 45.4819H47.657C47.7067 46.2134 47.9162 46.8242 48.2855 47.3143C48.6619 47.7972 49.1626 48.163 49.7876 48.4116C50.4197 48.6531 51.1335 48.7738 51.929 48.7738C52.7102 48.7738 53.3885 48.6602 53.9638 48.4329C54.5462 48.2056 54.9972 47.8896 55.3168 47.4847C55.6364 47.0799 55.7962 46.6147 55.7962 46.0891C55.7962 45.5991 55.6506 45.1871 55.3594 44.8533C55.0753 44.5195 54.6563 44.2354 54.1023 44.0011C53.5554 43.7667 52.8842 43.5536 52.0888 43.3619L49.7131 42.7653C47.8736 42.3178 46.4212 41.6183 45.3558 40.6665C44.2905 39.7148 43.7614 38.4329 43.7685 36.8207C43.7614 35.4996 44.1129 34.3455 44.8232 33.3583C45.5405 32.3711 46.5241 31.6005 47.7741 31.0465C49.0241 30.4925 50.4446 30.2156 52.0355 30.2156C53.6548 30.2156 55.0682 30.4925 56.2756 31.0465C57.4901 31.6005 58.4347 32.3711 59.1094 33.3583C59.7841 34.3455 60.1321 35.489 60.1534 36.7887H55.7322ZM70.8627 52.6516C69.2079 52.6516 67.7768 52.3001 66.5694 51.5969C65.3691 50.8867 64.4423 49.8995 63.7889 48.6353C63.1355 47.364 62.8088 45.8903 62.8088 44.2141C62.8088 42.5238 63.1355 41.0465 63.7889 39.7823C64.4423 38.511 65.3691 37.5238 66.5694 36.8207C67.7768 36.1104 69.2079 35.7553 70.8627 35.7553C72.5176 35.7553 73.9451 36.1104 75.1454 36.8207C76.3528 37.5238 77.2832 38.511 77.9366 39.7823C78.59 41.0465 78.9167 42.5238 78.9167 44.2141C78.9167 45.8903 78.59 47.364 77.9366 48.6353C77.2832 49.8995 76.3528 50.8867 75.1454 51.5969C73.9451 52.3001 72.5176 52.6516 70.8627 52.6516ZM70.8841 49.136C71.6369 49.136 72.2654 48.9229 72.7697 48.4968C73.274 48.0636 73.6539 47.4741 73.9096 46.7283C74.1724 45.9826 74.3038 45.1339 74.3038 44.1822C74.3038 43.2305 74.1724 42.3817 73.9096 41.636C73.6539 40.8903 73.274 40.3008 72.7697 39.8675C72.2654 39.4343 71.6369 39.2177 70.8841 39.2177C70.1241 39.2177 69.4849 39.4343 68.9664 39.8675C68.4551 40.3008 68.068 40.8903 67.8052 41.636C67.5495 42.3817 67.4217 43.2305 67.4217 44.1822C67.4217 45.1339 67.5495 45.9826 67.8052 46.7283C68.068 47.4741 68.4551 48.0636 68.9664 48.4968C69.4849 48.9229 70.1241 49.136 70.8841 49.136ZM89.2612 52.6516C87.585 52.6516 86.1433 52.2965 84.9359 51.5863C83.7356 50.869 82.8123 49.8746 82.166 48.6033C81.5268 47.332 81.2072 45.869 81.2072 44.2141C81.2072 42.538 81.5304 41.0678 82.1767 39.8036C82.8301 38.5323 83.7569 37.5415 84.9572 36.8313C86.1575 36.114 87.585 35.7553 89.2399 35.7553C90.6674 35.7553 91.9174 36.0146 92.9899 36.533C94.0623 37.0515 94.911 37.7795 95.536 38.717C96.161 39.6545 96.5055 40.7553 96.5694 42.0195H92.2868C92.166 41.2028 91.8464 40.5458 91.3279 40.0487C90.8166 39.5444 90.1454 39.2923 89.3145 39.2923C88.6113 39.2923 87.997 39.484 87.4714 39.8675C86.9529 40.244 86.5481 40.7944 86.2569 41.5188C85.9657 42.2433 85.8201 43.1204 85.8201 44.1502C85.8201 45.1942 85.9622 46.082 86.2463 46.8136C86.5375 47.5451 86.9458 48.1026 87.4714 48.4862C87.997 48.8697 88.6113 49.0614 89.3145 49.0614C89.8329 49.0614 90.2981 48.9549 90.7101 48.7418C91.1291 48.5288 91.4735 48.2198 91.7434 47.815C92.0204 47.4031 92.2015 46.9094 92.2868 46.3342H96.5694C96.4984 47.5842 96.1575 48.685 95.5467 49.6367C94.943 50.5813 94.1085 51.32 93.0431 51.8526C91.9778 52.3853 90.7172 52.6516 89.2612 52.6516ZM99.4751 52.332V35.9684H104.013V52.332H99.4751ZM101.755 33.859C101.08 33.859 100.501 33.6353 100.018 33.1879C99.5426 32.7333 99.3047 32.19 99.3047 31.5579C99.3047 30.9329 99.5426 30.3967 100.018 29.9492C100.501 29.4947 101.08 29.2674 101.755 29.2674C102.43 29.2674 103.005 29.4947 103.481 29.9492C103.964 30.3967 104.205 30.9329 104.205 31.5579C104.205 32.19 103.964 32.7333 103.481 33.1879C103.005 33.6353 102.43 33.859 101.755 33.859ZM112.315 52.641C111.271 52.641 110.341 52.4599 109.524 52.0977C108.707 51.7283 108.061 51.185 107.585 50.4677C107.116 49.7433 106.882 48.8413 106.882 47.7617C106.882 46.8526 107.049 46.0891 107.383 45.4712C107.716 44.8533 108.171 44.3562 108.746 43.9798C109.322 43.6033 109.975 43.3192 110.706 43.1275C111.445 42.9357 112.219 42.8008 113.029 42.7227C113.981 42.6232 114.748 42.5309 115.33 42.4457C115.912 42.3533 116.335 42.2184 116.598 42.0408C116.861 41.8633 116.992 41.6005 116.992 41.2525V41.1886C116.992 40.5138 116.779 39.9918 116.353 39.6225C115.934 39.2532 115.337 39.0685 114.563 39.0685C113.746 39.0685 113.096 39.2496 112.613 39.6119C112.131 39.967 111.811 40.4144 111.655 40.9542L107.457 40.6133C107.67 39.619 108.089 38.7596 108.714 38.0352C109.339 37.3036 110.145 36.7425 111.133 36.3519C112.127 35.9542 113.278 35.7553 114.584 35.7553C115.493 35.7553 116.363 35.8619 117.194 36.0749C118.032 36.288 118.775 36.6183 119.421 37.0657C120.074 37.5131 120.589 38.0884 120.966 38.7915C121.342 39.4876 121.53 40.3221 121.53 41.2951V52.332H117.226V50.0629H117.099C116.836 50.5742 116.484 51.0252 116.044 51.4158C115.604 51.7994 115.074 52.1012 114.456 52.3214C113.839 52.5344 113.125 52.641 112.315 52.641ZM113.615 49.5089C114.282 49.5089 114.872 49.3775 115.383 49.1147C115.895 48.8448 116.296 48.4826 116.587 48.0281C116.878 47.5735 117.024 47.0586 117.024 46.4833V44.7468C116.882 44.8391 116.687 44.9244 116.438 45.0025C116.197 45.0735 115.923 45.141 115.618 45.2049C115.312 45.2617 115.007 45.315 114.702 45.3647C114.396 45.4073 114.119 45.4464 113.871 45.4819C113.338 45.56 112.873 45.6843 112.475 45.8548C112.077 46.0252 111.768 46.256 111.548 46.5472C111.328 46.8313 111.218 47.1864 111.218 47.6126C111.218 48.2305 111.442 48.7028 111.889 49.0295C112.344 49.3491 112.919 49.5089 113.615 49.5089ZM129.59 30.5138V52.332H125.051V30.5138H129.59Z" fill="#333333"/>
<path d="M98.4258 113.117C98.082 113.111 97.7403 113.174 97.4208 113.301C97.1014 113.428 96.8105 113.618 96.5651 113.859C96.3198 114.101 96.1249 114.388 95.9919 114.705C95.8589 115.023 95.7903 115.363 95.7903 115.707C95.7903 116.051 95.8589 116.392 95.9919 116.709C96.1249 117.026 96.3198 117.314 96.5651 117.555C96.8105 117.796 97.1014 117.986 97.4208 118.114C97.7403 118.241 98.082 118.303 98.4258 118.297C99.1046 118.285 99.7516 118.007 100.227 117.523C100.703 117.038 100.97 116.386 100.97 115.707C100.97 115.028 100.703 114.376 100.227 113.892C99.7516 113.407 99.1046 113.129 98.4258 113.117ZM108.353 118.342C108.311 116.551 107.976 114.779 107.36 113.096C106.811 111.656 105.957 110.353 104.856 109.275C103.788 108.169 102.482 107.319 101.037 106.792C99.359 106.158 97.5855 105.815 95.7924 105.778C93.5054 105.648 92.7713 105.648 86.9016 105.648C81.031 105.648 80.2978 105.648 78.0099 105.778C76.2166 105.814 74.4434 106.158 72.7658 106.792C71.3235 107.325 70.0184 108.173 68.9459 109.274C67.8397 110.343 66.9909 111.65 66.4638 113.095C65.8298 114.773 65.4869 116.548 65.4498 118.341C65.3203 120.63 65.3203 121.364 65.3203 127.235C65.3203 133.108 65.3203 133.841 65.4498 136.13C65.487 137.923 65.8302 139.697 66.4638 141.375C66.9907 142.82 67.8396 144.128 68.9459 145.196C70.0183 146.298 71.3234 147.147 72.7658 147.679C74.4434 148.314 76.2169 148.657 78.0099 148.694C80.2978 148.823 81.031 148.823 86.9016 148.823C92.7713 148.823 93.5054 148.823 95.7924 148.694C97.5855 148.657 99.359 148.314 101.037 147.679C102.482 147.151 103.788 146.303 104.856 145.196C105.962 144.123 106.817 142.818 107.36 141.375C107.976 139.693 108.311 137.921 108.353 136.13C108.353 133.841 108.482 133.108 108.482 127.235C108.482 121.364 108.482 120.63 108.353 118.342ZM104.468 135.871C104.452 137.241 104.205 138.599 103.735 139.886C103.39 140.825 102.837 141.674 102.116 142.368C101.416 143.081 100.569 143.634 99.6341 143.987C98.3473 144.458 96.99 144.706 95.62 144.721C93.4617 144.829 92.6637 144.851 86.9874 144.851C81.3118 144.851 80.5131 144.851 78.3555 144.721C76.9329 144.748 75.5164 144.529 74.1683 144.074C73.2744 143.702 72.4665 143.151 71.7946 142.455C71.0785 141.761 70.5321 140.912 70.1979 139.973C69.6709 138.667 69.3785 137.278 69.3344 135.871C69.3344 133.712 69.2049 132.913 69.2049 127.235C69.2049 121.558 69.2049 120.759 69.3344 118.601C69.3441 117.2 69.5998 115.811 70.0894 114.499C70.4695 113.588 71.0527 112.776 71.7946 112.125C72.4501 111.382 73.2604 110.793 74.1683 110.397C75.4838 109.922 76.8704 109.674 78.2689 109.664C80.4273 109.664 81.2252 109.534 86.9016 109.534C92.5771 109.534 93.3759 109.534 95.5334 109.664C96.9036 109.679 98.2607 109.927 99.5475 110.397C100.528 110.761 101.409 111.353 102.116 112.125C102.823 112.788 103.376 113.598 103.735 114.499C104.214 115.814 104.463 117.201 104.468 118.601C104.576 120.759 104.597 121.558 104.597 127.235C104.597 132.913 104.576 133.712 104.468 135.871ZM86.9024 116.161C84.7138 116.165 82.5756 116.818 80.7579 118.037C78.9402 119.257 77.5246 120.988 76.6899 123.011C75.8552 125.035 75.639 127.261 76.0684 129.408C76.4979 131.554 77.5538 133.525 79.1027 135.072C80.6517 136.619 82.6242 137.671 84.771 138.097C86.9178 138.522 89.1425 138.302 91.1641 137.463C93.1857 136.625 94.9135 135.206 96.1291 133.385C97.3447 131.565 97.9935 129.425 97.9937 127.235C97.9965 125.779 97.7113 124.336 97.1547 122.989C96.598 121.643 95.7808 120.42 94.7501 119.391C93.7194 118.362 92.4954 117.547 91.1486 116.993C89.8018 116.438 88.3587 116.156 86.9024 116.161ZM86.9024 134.424C85.9587 134.424 85.0242 134.238 84.1523 133.877C83.2803 133.516 82.4881 132.986 81.8208 132.319C81.1535 131.651 80.6241 130.859 80.263 129.986C79.9018 129.114 79.7159 128.179 79.7159 127.235C79.7159 126.291 79.9018 125.357 80.263 124.484C80.6241 123.612 81.1535 122.82 81.8208 122.152C82.4881 121.485 83.2803 120.955 84.1523 120.594C85.0242 120.233 85.9587 120.047 86.9024 120.047C88.8084 120.047 90.6363 120.804 91.984 122.152C93.3317 123.5 94.0889 125.329 94.0889 127.235C94.0889 129.142 93.3317 130.97 91.984 132.319C90.6363 133.667 88.8084 134.424 86.9024 134.424Z" fill="#333333"/>
<g clip-path="url(#clip0_7340_7433)">
<path d="M112.802 218.093C112.802 203.786 101.207 192.188 86.905 192.188C72.6033 192.188 61.0078 203.786 61.0078 218.093C61.0078 231.023 70.4773 241.739 82.8586 243.682V225.581H76.2831V218.09H82.8586V212.387C82.8586 205.895 86.7262 202.308 92.6412 202.308C95.4729 202.308 98.4382 202.815 98.4382 202.815V209.19H95.1703C91.9525 209.19 90.949 211.186 90.949 213.235V218.093H98.1315L96.9831 225.583H90.949V243.684C103.334 241.74 112.802 231.022 112.802 218.093Z" fill="#333333"/>
</g>
<path d="M97.0152 292.852H102.369L90.672 306.225L104.433 324.423H93.6583L85.219 313.386L75.5626 324.423H70.2051L82.7167 310.119L69.5156 292.852H80.564L88.1924 302.94L97.0152 292.852ZM95.1361 321.218H98.1029L78.9519 295.889H75.7682L95.1361 321.218Z" fill="#333333"/>
<defs>
<clipPath id="clip0_7340_7433">
<rect width="51.81" height="51.81" fill="white" transform="translate(61 192.031)"/>
</clipPath>
</defs>
</svg>
