<svg width="438" height="363" viewBox="0 0 438 363" fill="none" xmlns="http://www.w3.org/2000/svg">
<rect y="0.332031" width="438" height="362" rx="24" fill="#FCFCFC"/>
<path d="M35.119 76.332L24.9222 40.6957H33.1527L39.0515 65.4567H39.3473L45.8551 40.6957H52.9023L59.3928 65.5089H59.706L65.6048 40.6957H73.8352L63.6385 76.332H56.2955L49.5092 53.0327H49.2308L42.462 76.332H35.119ZM85.1412 60.8803V76.332H77.7286V40.6957H84.9324V54.3203H85.2457C85.8489 52.7427 86.8233 51.5072 88.1689 50.614C89.5146 49.7092 91.2024 49.2567 93.2325 49.2567C95.0886 49.2567 96.7068 49.6628 98.0873 50.4748C99.4793 51.2752 100.558 52.4294 101.324 53.9375C102.101 55.4339 102.484 57.2262 102.472 59.3143V76.332H95.0596V60.6367C95.0712 58.9895 94.6536 57.7076 93.8067 56.7912C92.9715 55.8748 91.7999 55.4165 90.2918 55.4165C89.2826 55.4165 88.3894 55.6312 87.6121 56.0604C86.8465 56.4896 86.2433 57.116 85.8025 57.9396C85.3733 58.7517 85.1528 59.7319 85.1412 60.8803ZM120.486 76.854C117.737 76.854 115.37 76.2972 113.387 75.1836C111.415 74.0584 109.895 72.4691 108.828 70.4158C107.761 68.351 107.227 65.9091 107.227 63.0902C107.227 60.3409 107.761 57.928 108.828 55.8516C109.895 53.7751 111.397 52.1568 113.335 50.9968C115.283 49.8368 117.569 49.2567 120.19 49.2567C121.954 49.2567 123.595 49.541 125.115 50.1094C126.646 50.6662 127.98 51.5072 129.117 52.6325C130.265 53.7577 131.159 55.1729 131.797 56.8782C132.435 58.5719 132.754 60.5555 132.754 62.8292V64.8651H110.185V60.2713H125.776C125.776 59.2041 125.544 58.2586 125.08 57.435C124.616 56.6114 123.972 55.9676 123.148 55.5036C122.336 55.0279 121.391 54.7901 120.312 54.7901C119.187 54.7901 118.189 55.0511 117.319 55.5732C116.461 56.0836 115.788 56.7738 115.301 57.6438C114.814 58.5022 114.564 59.4593 114.553 60.5149V64.8825C114.553 66.2049 114.796 67.3475 115.283 68.3104C115.782 69.2732 116.484 70.0156 117.389 70.5376C118.294 71.0597 119.367 71.3207 120.608 71.3207C121.432 71.3207 122.186 71.2047 122.87 70.9727C123.554 70.7406 124.14 70.3926 124.627 69.9286C125.115 69.4646 125.486 68.8962 125.741 68.2234L132.597 68.6758C132.249 70.323 131.536 71.7615 130.457 72.9911C129.389 74.2092 128.009 75.1604 126.315 75.8448C124.633 76.5176 122.69 76.854 120.486 76.854ZM137.591 76.332V49.6048H144.777V54.2681H145.056C145.543 52.6093 146.361 51.3564 147.509 50.5096C148.658 49.6512 149.98 49.2219 151.477 49.2219C151.848 49.2219 152.248 49.2451 152.677 49.2915C153.106 49.3379 153.483 49.4018 153.808 49.483V56.0604C153.46 55.956 152.979 55.8632 152.364 55.782C151.749 55.7008 151.187 55.6602 150.676 55.6602C149.586 55.6602 148.611 55.898 147.753 56.3736C146.906 56.8376 146.233 57.4872 145.734 58.3224C145.247 59.1577 145.004 60.1205 145.004 61.2109V76.332H137.591ZM168.577 76.854C165.828 76.854 163.461 76.2972 161.478 75.1836C159.505 74.0584 157.986 72.4691 156.919 70.4158C155.851 68.351 155.318 65.9091 155.318 63.0902C155.318 60.3409 155.851 57.928 156.919 55.8516C157.986 53.7751 159.488 52.1568 161.425 50.9968C163.374 49.8368 165.659 49.2567 168.281 49.2567C170.044 49.2567 171.686 49.541 173.206 50.1094C174.737 50.6662 176.071 51.5072 177.208 52.6325C178.356 53.7577 179.249 55.1729 179.887 56.8782C180.525 58.5719 180.844 60.5555 180.844 62.8292V64.8651H158.276V60.2713H173.867C173.867 59.2041 173.635 58.2586 173.171 57.435C172.707 56.6114 172.063 55.9676 171.239 55.5036C170.427 55.0279 169.482 54.7901 168.403 54.7901C167.278 54.7901 166.28 55.0511 165.41 55.5732C164.552 56.0836 163.879 56.7738 163.392 57.6438C162.904 58.5022 162.655 59.4593 162.643 60.5149V64.8825C162.643 66.2049 162.887 67.3475 163.374 68.3104C163.873 69.2732 164.575 70.0156 165.48 70.5376C166.384 71.0597 167.458 71.3207 168.699 71.3207C169.522 71.3207 170.276 71.2047 170.961 70.9727C171.645 70.7406 172.231 70.3926 172.718 69.9286C173.206 69.4646 173.577 68.8962 173.832 68.2234L180.688 68.6758C180.34 70.323 179.626 71.7615 178.547 72.9911C177.48 74.2092 176.1 75.1604 174.406 75.8448C172.724 76.5176 170.781 76.854 168.577 76.854ZM56.9045 104.696V140.332H50.3967L34.8928 117.903H34.6317V140.332H27.0973V104.696H33.7095L49.0916 127.108H49.4048V104.696H56.9045ZM75.1707 140.854C72.4214 140.854 70.055 140.297 68.0713 139.184C66.0992 138.058 64.5796 136.469 63.5123 134.416C62.4451 132.351 61.9115 129.909 61.9115 127.09C61.9115 124.341 62.4451 121.928 63.5123 119.852C64.5796 117.775 66.0818 116.157 68.0191 114.997C69.968 113.837 72.2532 113.257 74.8749 113.257C76.6382 113.257 78.2796 113.541 79.7993 114.109C81.3305 114.666 82.6646 115.507 83.8014 116.632C84.9498 117.758 85.8431 119.173 86.4811 120.878C87.1191 122.572 87.4381 124.556 87.4381 126.829V128.865H64.8696V124.271H80.4605C80.4605 123.204 80.2285 122.259 79.7645 121.435C79.3005 120.611 78.6566 119.968 77.833 119.504C77.021 119.028 76.0756 118.79 74.9967 118.79C73.8715 118.79 72.8738 119.051 72.0038 119.573C71.1454 120.084 70.4726 120.774 69.9854 121.644C69.4981 122.502 69.2487 123.459 69.2371 124.515V128.882C69.2371 130.205 69.4807 131.348 69.968 132.31C70.4668 133.273 71.1686 134.016 72.0734 134.538C72.9782 135.06 74.0513 135.321 75.2925 135.321C76.1162 135.321 76.8702 135.205 77.5546 134.973C78.239 134.741 78.8248 134.393 79.3121 133.929C79.7993 133.465 80.1705 132.896 80.4257 132.223L87.2815 132.676C86.9335 134.323 86.2201 135.761 85.1412 136.991C84.074 138.209 82.6936 139.16 80.9999 139.845C79.3179 140.518 77.3748 140.854 75.1707 140.854ZM92.2755 140.332V113.605H99.6881V140.332H92.2755ZM95.9992 110.159C94.8972 110.159 93.9517 109.794 93.1629 109.063C92.3857 108.321 91.9971 107.433 91.9971 106.401C91.9971 105.38 92.3857 104.504 93.1629 103.773C93.9517 103.031 94.8972 102.66 95.9992 102.66C97.1012 102.66 98.0409 103.031 98.8181 103.773C99.6069 104.504 100.001 105.38 100.001 106.401C100.001 107.433 99.6069 108.321 98.8181 109.063C98.0409 109.794 97.1012 110.159 95.9992 110.159ZM117.667 150.912C115.266 150.912 113.207 150.581 111.49 149.92C109.785 149.27 108.428 148.383 107.418 147.257C106.409 146.132 105.754 144.868 105.452 143.464L112.308 142.542C112.517 143.076 112.847 143.574 113.3 144.038C113.752 144.502 114.35 144.874 115.092 145.152C115.846 145.442 116.762 145.587 117.841 145.587C119.454 145.587 120.782 145.193 121.826 144.404C122.882 143.627 123.409 142.321 123.409 140.489V135.599H123.096C122.771 136.342 122.284 137.043 121.635 137.705C120.985 138.366 120.15 138.905 119.129 139.323C118.108 139.74 116.89 139.949 115.475 139.949C113.468 139.949 111.641 139.485 109.994 138.557C108.358 137.618 107.053 136.185 106.078 134.259C105.116 132.322 104.634 129.874 104.634 126.916C104.634 123.888 105.127 121.36 106.113 119.33C107.099 117.299 108.41 115.78 110.046 114.771C111.693 113.761 113.497 113.257 115.457 113.257C116.954 113.257 118.207 113.512 119.216 114.022C120.225 114.521 121.037 115.148 121.652 115.902C122.278 116.644 122.76 117.375 123.096 118.094H123.375V113.605H130.735V140.593C130.735 142.867 130.178 144.769 129.065 146.3C127.951 147.832 126.408 148.98 124.436 149.746C122.476 150.523 120.219 150.912 117.667 150.912ZM117.824 134.381C119.019 134.381 120.028 134.085 120.852 133.494C121.687 132.89 122.325 132.032 122.766 130.918C123.218 129.793 123.444 128.447 123.444 126.881C123.444 125.315 123.224 123.958 122.783 122.81C122.342 121.65 121.704 120.751 120.869 120.113C120.034 119.475 119.019 119.156 117.824 119.156C116.606 119.156 115.579 119.486 114.744 120.147C113.909 120.797 113.277 121.702 112.847 122.862C112.418 124.022 112.203 125.362 112.203 126.881C112.203 128.424 112.418 129.758 112.847 130.884C113.288 131.997 113.92 132.861 114.744 133.476C115.579 134.079 116.606 134.381 117.824 134.381ZM144.047 124.88V140.332H136.634V104.696H143.838V118.32H144.151C144.754 116.743 145.729 115.507 147.074 114.614C148.42 113.709 150.108 113.257 152.138 113.257C153.994 113.257 155.612 113.663 156.993 114.475C158.385 115.275 159.463 116.429 160.229 117.938C161.006 119.434 161.389 121.226 161.377 123.314V140.332H153.965V124.637C153.976 122.989 153.559 121.708 152.712 120.791C151.877 119.875 150.705 119.417 149.197 119.417C148.188 119.417 147.295 119.631 146.517 120.06C145.752 120.49 145.149 121.116 144.708 121.94C144.279 122.752 144.058 123.732 144.047 124.88ZM167.35 140.332V104.696H174.763V118.094H174.989C175.314 117.375 175.784 116.644 176.399 115.902C177.025 115.148 177.837 114.521 178.835 114.022C179.844 113.512 181.097 113.257 182.593 113.257C184.542 113.257 186.34 113.767 187.987 114.788C189.635 115.797 190.951 117.323 191.937 119.364C192.923 121.394 193.416 123.941 193.416 127.003C193.416 129.984 192.935 132.502 191.972 134.555C191.021 136.597 189.722 138.145 188.074 139.201C186.439 140.245 184.606 140.767 182.576 140.767C181.137 140.767 179.913 140.529 178.904 140.054C177.907 139.578 177.089 138.981 176.451 138.261C175.813 137.531 175.325 136.794 174.989 136.051H174.658V140.332H167.35ZM174.606 126.968C174.606 128.558 174.827 129.944 175.267 131.127C175.708 132.31 176.346 133.233 177.182 133.894C178.017 134.543 179.032 134.868 180.227 134.868C181.433 134.868 182.454 134.538 183.289 133.876C184.124 133.204 184.757 132.276 185.186 131.092C185.627 129.897 185.847 128.523 185.847 126.968C185.847 125.426 185.632 124.068 185.203 122.897C184.774 121.725 184.142 120.809 183.307 120.147C182.471 119.486 181.445 119.156 180.227 119.156C179.02 119.156 177.999 119.475 177.164 120.113C176.341 120.751 175.708 121.655 175.267 122.827C174.827 123.999 174.606 125.379 174.606 126.968ZM210.438 140.854C207.736 140.854 205.398 140.28 203.426 139.131C201.465 137.971 199.952 136.359 198.884 134.294C197.817 132.218 197.284 129.81 197.284 127.073C197.284 124.312 197.817 121.899 198.884 119.834C199.952 117.758 201.465 116.145 203.426 114.997C205.398 113.837 207.736 113.257 210.438 113.257C213.141 113.257 215.473 113.837 217.433 114.997C219.405 116.145 220.925 117.758 221.992 119.834C223.06 121.899 223.593 124.312 223.593 127.073C223.593 129.81 223.06 132.218 221.992 134.294C220.925 136.359 219.405 137.971 217.433 139.131C215.473 140.28 213.141 140.854 210.438 140.854ZM210.473 135.112C211.703 135.112 212.729 134.764 213.553 134.068C214.377 133.36 214.997 132.397 215.415 131.179C215.844 129.961 216.059 128.575 216.059 127.021C216.059 125.466 215.844 124.08 215.415 122.862C214.997 121.644 214.377 120.681 213.553 119.973C212.729 119.266 211.703 118.912 210.473 118.912C209.232 118.912 208.188 119.266 207.341 119.973C206.506 120.681 205.874 121.644 205.444 122.862C205.027 124.08 204.818 125.466 204.818 127.021C204.818 128.575 205.027 129.961 205.444 131.179C205.874 132.397 206.506 133.36 207.341 134.068C208.188 134.764 209.232 135.112 210.473 135.112ZM245.553 128.952V113.605H252.965V140.332H245.849V135.477H245.57C244.967 137.043 243.963 138.302 242.56 139.253C241.168 140.204 239.468 140.68 237.461 140.68C235.675 140.68 234.103 140.274 232.746 139.462C231.389 138.65 230.327 137.496 229.562 135.999C228.808 134.503 228.425 132.711 228.413 130.623V113.605H235.826V129.3C235.837 130.878 236.261 132.125 237.096 133.041C237.931 133.958 239.051 134.416 240.454 134.416C241.348 134.416 242.183 134.213 242.96 133.807C243.737 133.389 244.364 132.774 244.839 131.962C245.327 131.15 245.564 130.147 245.553 128.952ZM258.895 140.332V113.605H266.081V118.268H266.359C266.847 116.609 267.665 115.356 268.813 114.51C269.961 113.651 271.284 113.222 272.78 113.222C273.151 113.222 273.552 113.245 273.981 113.292C274.41 113.338 274.787 113.402 275.112 113.483V120.06C274.764 119.956 274.283 119.863 273.668 119.782C273.053 119.701 272.49 119.66 271.98 119.66C270.889 119.66 269.915 119.898 269.057 120.374C268.21 120.838 267.537 121.487 267.038 122.322C266.551 123.158 266.307 124.121 266.307 125.211V140.332H258.895ZM301.182 121.226L294.396 121.644C294.28 121.064 294.031 120.542 293.648 120.078C293.265 119.602 292.76 119.225 292.134 118.947C291.519 118.657 290.783 118.512 289.924 118.512C288.776 118.512 287.807 118.755 287.018 119.243C286.229 119.718 285.835 120.356 285.835 121.157C285.835 121.795 286.09 122.334 286.601 122.775C287.111 123.216 287.987 123.569 289.228 123.836L294.066 124.811C296.664 125.344 298.601 126.203 299.877 127.386C301.153 128.569 301.791 130.124 301.791 132.049C301.791 133.801 301.275 135.338 300.243 136.661C299.222 137.983 297.818 139.015 296.032 139.758C294.257 140.489 292.209 140.854 289.889 140.854C286.351 140.854 283.532 140.117 281.433 138.644C279.345 137.159 278.121 135.141 277.761 132.589L285.052 132.206C285.272 133.285 285.806 134.108 286.653 134.677C287.5 135.234 288.584 135.512 289.907 135.512C291.206 135.512 292.25 135.263 293.039 134.764C293.839 134.253 294.245 133.598 294.257 132.798C294.245 132.125 293.961 131.574 293.404 131.145C292.847 130.704 291.989 130.367 290.829 130.135L286.2 129.213C283.59 128.691 281.647 127.786 280.371 126.499C279.107 125.211 278.475 123.569 278.475 121.574C278.475 119.857 278.939 118.378 279.867 117.137C280.806 115.896 282.123 114.939 283.817 114.266C285.522 113.593 287.517 113.257 289.802 113.257C293.178 113.257 295.835 113.97 297.772 115.397C299.721 116.824 300.858 118.767 301.182 121.226ZM27.0973 204.332V168.696H34.5099V182.094H34.7362C35.061 181.375 35.5308 180.644 36.1456 179.902C36.772 179.148 37.584 178.521 38.5817 178.022C39.5909 177.512 40.8438 177.257 42.3402 177.257C44.2891 177.257 46.0871 177.767 47.7344 178.788C49.3816 179.797 50.6983 181.323 51.6843 183.364C52.6703 185.394 53.1634 187.941 53.1634 191.003C53.1634 193.984 52.6819 196.502 51.7191 198.555C50.7679 200.597 49.4686 202.145 47.8214 203.201C46.1857 204.245 44.3529 204.767 42.3228 204.767C40.8844 204.767 39.6605 204.529 38.6513 204.054C37.6536 203.578 36.8358 202.981 36.1978 202.261C35.5598 201.531 35.0726 200.794 34.7362 200.051H34.4055V204.332H27.0973ZM34.3533 190.968C34.3533 192.558 34.5737 193.944 35.0146 195.127C35.4554 196.31 36.0934 197.233 36.9286 197.894C37.7638 198.543 38.7789 198.868 39.9737 198.868C41.1802 198.868 42.201 198.538 43.0362 197.876C43.8714 197.204 44.5037 196.276 44.9329 195.092C45.3737 193.897 45.5941 192.523 45.5941 190.968C45.5941 189.426 45.3795 188.068 44.9503 186.897C44.5211 185.725 43.8888 184.809 43.0536 184.147C42.2184 183.486 41.1918 183.156 39.9737 183.156C38.7673 183.156 37.7464 183.475 36.9112 184.113C36.0876 184.751 35.4554 185.655 35.0146 186.827C34.5737 187.999 34.3533 189.379 34.3533 190.968ZM70.2899 204.854C67.5406 204.854 65.1741 204.297 63.1904 203.184C61.2184 202.058 59.6987 200.469 58.6315 198.416C57.5642 196.351 57.0306 193.909 57.0306 191.09C57.0306 188.341 57.5642 185.928 58.6315 183.852C59.6987 181.775 61.201 180.157 63.1382 178.997C65.0871 177.837 67.3724 177.257 69.9941 177.257C71.7573 177.257 73.3988 177.541 74.9184 178.109C76.4497 178.666 77.7837 179.507 78.9205 180.632C80.069 181.758 80.9622 183.173 81.6002 184.878C82.2383 186.572 82.5573 188.556 82.5573 190.829V192.865H59.9887V188.271H75.5796C75.5796 187.204 75.3476 186.259 74.8836 185.435C74.4196 184.611 73.7758 183.968 72.9521 183.504C72.1401 183.028 71.1947 182.79 70.1159 182.79C68.9906 182.79 67.993 183.051 67.123 183.573C66.2645 184.084 65.5917 184.774 65.1045 185.644C64.6173 186.502 64.3679 187.459 64.3563 188.515V192.882C64.3563 194.205 64.5999 195.348 65.0871 196.31C65.5859 197.273 66.2877 198.016 67.1926 198.538C68.0974 199.06 69.1704 199.321 70.4117 199.321C71.2353 199.321 71.9893 199.205 72.6737 198.973C73.3582 198.741 73.944 198.393 74.4312 197.929C74.9184 197.465 75.2896 196.896 75.5448 196.223L82.4007 196.676C82.0526 198.323 81.3392 199.761 80.2604 200.991C79.1932 202.209 77.8127 203.16 76.1191 203.845C74.437 204.518 72.4939 204.854 70.2899 204.854ZM99.4706 204.854C96.7329 204.854 94.378 204.274 92.406 203.114C90.4455 201.942 88.9375 200.318 87.8818 198.242C86.8378 196.165 86.3158 193.776 86.3158 191.073C86.3158 188.335 86.8436 185.934 87.8992 183.869C88.9665 181.792 90.4803 180.174 92.4408 179.014C94.4012 177.843 96.7329 177.257 99.4358 177.257C101.767 177.257 103.809 177.68 105.561 178.527C107.312 179.374 108.699 180.563 109.72 182.094C110.74 183.625 111.303 185.423 111.407 187.488H104.412C104.215 186.154 103.693 185.081 102.846 184.269C102.011 183.446 100.915 183.034 99.5576 183.034C98.4092 183.034 97.4057 183.347 96.5473 183.973C95.7005 184.588 95.0393 185.487 94.5637 186.67C94.088 187.854 93.8502 189.286 93.8502 190.968C93.8502 192.674 94.0822 194.124 94.5463 195.319C95.0219 196.513 95.6889 197.424 96.5473 198.05C97.4057 198.677 98.4092 198.99 99.5576 198.99C100.404 198.99 101.164 198.816 101.837 198.468C102.522 198.12 103.084 197.615 103.525 196.954C103.977 196.281 104.273 195.475 104.412 194.536H111.407C111.291 196.577 110.735 198.375 109.737 199.93C108.751 201.473 107.388 202.679 105.648 203.549C103.908 204.419 101.849 204.854 99.4706 204.854ZM128.229 204.854C125.527 204.854 123.189 204.28 121.217 203.131C119.257 201.971 117.743 200.359 116.675 198.294C115.608 196.218 115.075 193.81 115.075 191.073C115.075 188.312 115.608 185.899 116.675 183.834C117.743 181.758 119.257 180.145 121.217 178.997C123.189 177.837 125.527 177.257 128.229 177.257C130.932 177.257 133.264 177.837 135.224 178.997C137.196 180.145 138.716 181.758 139.783 183.834C140.851 185.899 141.384 188.312 141.384 191.073C141.384 193.81 140.851 196.218 139.783 198.294C138.716 200.359 137.196 201.971 135.224 203.131C133.264 204.28 130.932 204.854 128.229 204.854ZM128.264 199.112C129.494 199.112 130.52 198.764 131.344 198.068C132.168 197.36 132.788 196.397 133.206 195.179C133.635 193.961 133.85 192.575 133.85 191.021C133.85 189.466 133.635 188.08 133.206 186.862C132.788 185.644 132.168 184.681 131.344 183.973C130.52 183.266 129.494 182.912 128.264 182.912C127.023 182.912 125.979 183.266 125.132 183.973C124.297 184.681 123.665 185.644 123.235 186.862C122.818 188.08 122.609 189.466 122.609 191.021C122.609 192.575 122.818 193.961 123.235 195.179C123.665 196.397 124.297 197.36 125.132 198.068C125.979 198.764 127.023 199.112 128.264 199.112ZM146.204 204.332V177.605H153.269V182.32H153.582C154.139 180.754 155.067 179.519 156.366 178.614C157.665 177.709 159.22 177.257 161.029 177.257C162.862 177.257 164.423 177.715 165.71 178.631C166.998 179.536 167.856 180.766 168.286 182.32H168.564C169.109 180.789 170.095 179.565 171.522 178.649C172.96 177.721 174.66 177.257 176.62 177.257C179.114 177.257 181.139 178.051 182.693 179.641C184.259 181.218 185.042 183.457 185.042 186.357V204.332H177.647V187.819C177.647 186.334 177.253 185.22 176.464 184.478C175.675 183.736 174.689 183.364 173.506 183.364C172.16 183.364 171.11 183.794 170.356 184.652C169.602 185.499 169.225 186.618 169.225 188.01V204.332H162.039V187.662C162.039 186.351 161.662 185.307 160.908 184.53C160.165 183.753 159.185 183.364 157.967 183.364C157.143 183.364 156.401 183.573 155.74 183.991C155.09 184.397 154.574 184.971 154.191 185.713C153.808 186.444 153.617 187.303 153.617 188.289V204.332H146.204ZM203.078 204.854C200.329 204.854 197.962 204.297 195.979 203.184C194.006 202.058 192.487 200.469 191.42 198.416C190.352 196.351 189.819 193.909 189.819 191.09C189.819 188.341 190.352 185.928 191.42 183.852C192.487 181.775 193.989 180.157 195.926 178.997C197.875 177.837 200.16 177.257 202.782 177.257C204.545 177.257 206.187 177.541 207.706 178.109C209.238 178.666 210.572 179.507 211.709 180.632C212.857 181.758 213.75 183.173 214.388 184.878C215.026 186.572 215.345 188.556 215.345 190.829V192.865H192.777V188.271H208.368C208.368 187.204 208.136 186.259 207.672 185.435C207.208 184.611 206.564 183.968 205.74 183.504C204.928 183.028 203.983 182.79 202.904 182.79C201.779 182.79 200.781 183.051 199.911 183.573C199.053 184.084 198.38 184.774 197.893 185.644C197.405 186.502 197.156 187.459 197.144 188.515V192.882C197.144 194.205 197.388 195.348 197.875 196.31C198.374 197.273 199.076 198.016 199.981 198.538C200.885 199.06 201.959 199.321 203.2 199.321C204.023 199.321 204.777 199.205 205.462 198.973C206.146 198.741 206.732 198.393 207.219 197.929C207.706 197.465 208.078 196.896 208.333 196.223L215.189 196.676C214.841 198.323 214.127 199.761 213.048 200.991C211.981 202.209 210.601 203.16 208.907 203.845C207.225 204.518 205.282 204.854 203.078 204.854ZM245.896 177.605V183.173H229.401V177.605H245.896ZM233.177 204.332V175.673C233.177 173.736 233.554 172.129 234.308 170.853C235.073 169.577 236.117 168.62 237.44 167.982C238.762 167.344 240.264 167.025 241.946 167.025C243.083 167.025 244.122 167.112 245.061 167.286C246.012 167.46 246.72 167.617 247.184 167.756L245.862 173.324C245.572 173.231 245.212 173.144 244.783 173.063C244.365 172.982 243.936 172.941 243.495 172.941C242.405 172.941 241.645 173.197 241.216 173.707C240.786 174.206 240.572 174.908 240.572 175.812V204.332H233.177ZM250.425 204.332V177.605H257.611V182.268H257.89C258.377 180.609 259.195 179.356 260.343 178.51C261.492 177.651 262.814 177.222 264.311 177.222C264.682 177.222 265.082 177.245 265.511 177.292C265.94 177.338 266.317 177.402 266.642 177.483V184.06C266.294 183.956 265.813 183.863 265.198 183.782C264.583 183.701 264.021 183.66 263.51 183.66C262.42 183.66 261.445 183.898 260.587 184.374C259.74 184.838 259.067 185.487 258.568 186.322C258.081 187.158 257.838 188.121 257.838 189.211V204.332H250.425ZM270.475 204.332V177.605H277.887V204.332H270.475ZM274.198 174.159C273.096 174.159 272.151 173.794 271.362 173.063C270.585 172.321 270.196 171.433 270.196 170.401C270.196 169.38 270.585 168.504 271.362 167.773C272.151 167.031 273.096 166.66 274.198 166.66C275.3 166.66 276.24 167.031 277.017 167.773C277.806 168.504 278.201 169.38 278.201 170.401C278.201 171.433 277.806 172.321 277.017 173.063C276.24 173.794 275.3 174.159 274.198 174.159ZM296.006 204.854C293.256 204.854 290.89 204.297 288.906 203.184C286.934 202.058 285.415 200.469 284.347 198.416C283.28 196.351 282.746 193.909 282.746 191.09C282.746 188.341 283.28 185.928 284.347 183.852C285.415 181.775 286.917 180.157 288.854 178.997C290.803 177.837 293.088 177.257 295.71 177.257C297.473 177.257 299.115 177.541 300.634 178.109C302.165 178.666 303.5 179.507 304.636 180.632C305.785 181.758 306.678 183.173 307.316 184.878C307.954 186.572 308.273 188.556 308.273 190.829V192.865H285.705V188.271H301.295C301.295 187.204 301.063 186.259 300.599 185.435C300.135 184.611 299.492 183.968 298.668 183.504C297.856 183.028 296.911 182.79 295.832 182.79C294.706 182.79 293.709 183.051 292.839 183.573C291.98 184.084 291.308 184.774 290.82 185.644C290.333 186.502 290.084 187.459 290.072 188.515V192.882C290.072 194.205 290.316 195.348 290.803 196.31C291.302 197.273 292.004 198.016 292.908 198.538C293.813 199.06 294.886 199.321 296.127 199.321C296.951 199.321 297.705 199.205 298.39 198.973C299.074 198.741 299.66 198.393 300.147 197.929C300.634 197.465 301.005 196.896 301.261 196.223L308.116 196.676C307.768 198.323 307.055 199.761 305.976 200.991C304.909 202.209 303.529 203.16 301.835 203.845C300.153 204.518 298.21 204.854 296.006 204.854ZM320.523 188.88V204.332H313.11V177.605H320.175V182.32H320.488C321.08 180.766 322.072 179.536 323.464 178.631C324.856 177.715 326.544 177.257 328.527 177.257C330.383 177.257 332.002 177.663 333.382 178.475C334.763 179.287 335.836 180.447 336.601 181.955C337.367 183.451 337.75 185.238 337.75 187.314V204.332H330.337V188.637C330.349 187.001 329.931 185.725 329.084 184.809C328.237 183.881 327.071 183.417 325.587 183.417C324.589 183.417 323.707 183.631 322.942 184.06C322.188 184.49 321.596 185.116 321.167 185.94C320.749 186.752 320.535 187.732 320.523 188.88ZM353.441 204.767C351.411 204.767 349.572 204.245 347.925 203.201C346.289 202.145 344.99 200.597 344.027 198.555C343.076 196.502 342.6 193.984 342.6 191.003C342.6 187.941 343.093 185.394 344.079 183.364C345.065 181.323 346.376 179.797 348.012 178.788C349.659 177.767 351.463 177.257 353.423 177.257C354.92 177.257 356.167 177.512 357.164 178.022C358.174 178.521 358.986 179.148 359.6 179.902C360.227 180.644 360.702 181.375 361.027 182.094H361.253V168.696H368.649V204.332H361.34V200.051H361.027C360.679 200.794 360.186 201.531 359.548 202.261C358.922 202.981 358.104 203.578 357.095 204.054C356.097 204.529 354.879 204.767 353.441 204.767ZM355.79 198.868C356.985 198.868 357.994 198.543 358.817 197.894C359.653 197.233 360.291 196.31 360.731 195.127C361.184 193.944 361.41 192.558 361.41 190.968C361.41 189.379 361.19 187.999 360.749 186.827C360.308 185.655 359.67 184.751 358.835 184.113C358 183.475 356.985 183.156 355.79 183.156C354.572 183.156 353.545 183.486 352.71 184.147C351.875 184.809 351.242 185.725 350.813 186.897C350.384 188.068 350.169 189.426 350.169 190.968C350.169 192.523 350.384 193.897 350.813 195.092C351.254 196.276 351.886 197.204 352.71 197.876C353.545 198.538 354.572 198.868 355.79 198.868ZM396.981 185.226L390.195 185.644C390.079 185.064 389.83 184.542 389.447 184.078C389.064 183.602 388.559 183.225 387.933 182.947C387.318 182.657 386.581 182.512 385.723 182.512C384.575 182.512 383.606 182.755 382.817 183.243C382.028 183.718 381.634 184.356 381.634 185.157C381.634 185.795 381.889 186.334 382.4 186.775C382.91 187.216 383.786 187.569 385.027 187.836L389.864 188.811C392.463 189.344 394.4 190.203 395.676 191.386C396.952 192.569 397.59 194.124 397.59 196.049C397.59 197.801 397.074 199.338 396.042 200.661C395.021 201.983 393.617 203.015 391.831 203.758C390.056 204.489 388.008 204.854 385.688 204.854C382.15 204.854 379.331 204.117 377.232 202.644C375.143 201.159 373.92 199.141 373.56 196.589L380.851 196.206C381.071 197.285 381.605 198.108 382.452 198.677C383.299 199.234 384.383 199.512 385.706 199.512C387.005 199.512 388.049 199.263 388.838 198.764C389.638 198.253 390.044 197.598 390.056 196.798C390.044 196.125 389.76 195.574 389.203 195.145C388.646 194.704 387.788 194.367 386.628 194.135L381.999 193.213C379.389 192.691 377.446 191.786 376.17 190.499C374.906 189.211 374.273 187.569 374.273 185.574C374.273 183.857 374.737 182.378 375.665 181.137C376.605 179.896 377.922 178.939 379.615 178.266C381.321 177.593 383.316 177.257 385.601 177.257C388.977 177.257 391.633 177.97 393.571 179.397C395.52 180.824 396.656 182.767 396.981 185.226ZM406.591 204.784C405.442 204.784 404.456 204.378 403.633 203.566C402.821 202.743 402.415 201.757 402.415 200.608C402.415 199.471 402.821 198.497 403.633 197.685C404.456 196.873 405.442 196.467 406.591 196.467C407.704 196.467 408.679 196.873 409.514 197.685C410.349 198.497 410.767 199.471 410.767 200.608C410.767 201.374 410.57 202.076 410.175 202.714C409.792 203.34 409.288 203.845 408.661 204.228C408.035 204.599 407.345 204.784 406.591 204.784Z" fill="#333333"/>
<path d="M32.7559 291.304L40.835 295.743L49.3926 291.268V288.398H56.8428V291.832H52.6533C52.172 293.905 51.0802 295.823 49.4756 297.348C47.2616 299.451 44.259 300.633 41.1279 300.633C38.1925 300.633 35.3688 299.594 33.2031 297.731L32.7793 297.348C31.1749 295.823 30.0838 293.905 29.6025 291.832H25.502V288.398H32.7559V291.304Z" fill="url(#paint0_linear_7340_7381)"/>
<circle cx="41.1728" cy="288.505" r="15.4555" stroke="url(#paint1_linear_7340_7381)" stroke-width="3.43455"/>
<path d="M41.0654 280.919C45.4321 280.919 48.9717 284.459 48.9717 288.825C48.9717 293.192 45.4321 296.731 41.0654 296.731C36.6987 296.731 33.1592 293.192 33.1592 288.825C33.1592 284.459 36.6988 280.919 41.0654 280.919Z" stroke="url(#paint2_linear_7340_7381)" stroke-width="4.57941"/>
<path d="M77.7287 286.328H71.392C71.2718 286.139 71.1602 285.882 71.0571 285.555C70.9541 285.229 70.9026 284.886 70.9026 284.525C70.9026 283.855 71.0485 283.375 71.3405 283.083C71.6496 282.791 72.0446 282.645 72.5254 282.645H82.1336C82.8892 283.263 83.267 284.087 83.267 285.118C83.267 285.547 83.1639 285.976 82.9579 286.406C82.769 286.818 82.5199 287.213 82.2108 287.59L76.3635 294.648H82.9579C83.0781 294.837 83.1897 295.095 83.2927 295.421C83.3958 295.748 83.4473 296.091 83.4473 296.452C83.4473 297.121 83.2927 297.602 82.9836 297.894C82.6917 298.186 82.3053 298.332 81.8245 298.332H71.6753C71.3834 298.092 71.143 297.765 70.9541 297.353C70.7652 296.941 70.6707 296.469 70.6707 295.936C70.6707 295.507 70.7824 295.069 71.0056 294.623C71.2288 294.176 71.495 293.764 71.8041 293.386L77.7287 286.328ZM98.2035 292.073C98.2035 293.137 98.0403 294.09 97.714 294.932C97.3877 295.756 96.9241 296.452 96.323 297.018C95.7392 297.585 95.0351 298.014 94.2108 298.306C93.3865 298.598 92.4677 298.744 91.4546 298.744C90.4414 298.744 89.5226 298.59 88.6983 298.281C87.874 297.971 87.1614 297.533 86.5603 296.967C85.9764 296.383 85.5214 295.679 85.1951 294.855C84.8688 294.03 84.7057 293.103 84.7057 292.073C84.7057 291.059 84.8688 290.141 85.1951 289.316C85.5214 288.492 85.9764 287.797 86.5603 287.23C87.1614 286.646 87.874 286.199 88.6983 285.89C89.5226 285.581 90.4414 285.427 91.4546 285.427C92.4677 285.427 93.3865 285.59 94.2108 285.916C95.0351 286.225 95.7392 286.672 96.323 287.256C96.9241 287.822 97.3877 288.518 97.714 289.342C98.0403 290.166 98.2035 291.077 98.2035 292.073ZM89.1877 292.073C89.1877 293.12 89.3852 293.927 89.7802 294.494C90.1924 295.043 90.7591 295.318 91.4803 295.318C92.2016 295.318 92.7511 295.035 93.1289 294.468C93.5239 293.901 93.7214 293.103 93.7214 292.073C93.7214 291.042 93.5239 290.252 93.1289 289.703C92.7339 289.136 92.1758 288.853 91.4546 288.853C90.7333 288.853 90.1752 289.136 89.7802 289.703C89.3852 290.252 89.1877 291.042 89.1877 292.073ZM108.274 290.398C108.274 289.866 108.119 289.479 107.81 289.239C107.518 288.981 107.115 288.853 106.599 288.853C106.256 288.853 105.912 288.896 105.569 288.981C105.243 289.067 104.959 289.196 104.719 289.368V298.306C104.547 298.358 104.272 298.409 103.895 298.461C103.534 298.512 103.156 298.538 102.761 298.538C102.383 298.538 102.04 298.512 101.731 298.461C101.439 298.409 101.19 298.306 100.984 298.152C100.778 297.997 100.615 297.791 100.494 297.533C100.391 297.259 100.34 296.907 100.34 296.477V288.75C100.34 288.286 100.434 287.908 100.623 287.616C100.829 287.324 101.104 287.058 101.448 286.818C102.031 286.406 102.761 286.071 103.637 285.813C104.53 285.555 105.517 285.427 106.599 285.427C108.54 285.427 110.034 285.856 111.081 286.715C112.129 287.556 112.653 288.732 112.653 290.244V298.306C112.481 298.358 112.206 298.409 111.828 298.461C111.468 298.512 111.09 298.538 110.695 298.538C110.317 298.538 109.974 298.512 109.665 298.461C109.373 298.409 109.124 298.306 108.918 298.152C108.712 297.997 108.548 297.791 108.428 297.533C108.325 297.259 108.274 296.907 108.274 296.477V290.398ZM121.978 298.744C120.965 298.744 120.02 298.607 119.144 298.332C118.286 298.04 117.53 297.611 116.877 297.044C116.242 296.477 115.735 295.765 115.358 294.906C114.997 294.047 114.817 293.043 114.817 291.892C114.817 290.759 114.997 289.789 115.358 288.981C115.735 288.157 116.225 287.487 116.826 286.972C117.427 286.44 118.114 286.053 118.887 285.813C119.659 285.555 120.449 285.427 121.256 285.427C122.167 285.427 122.991 285.564 123.729 285.839C124.485 286.114 125.129 286.491 125.661 286.972C126.211 287.453 126.632 288.028 126.924 288.698C127.233 289.368 127.387 290.098 127.387 290.888C127.387 291.472 127.224 291.918 126.898 292.227C126.571 292.536 126.116 292.734 125.533 292.82L119.17 293.773C119.359 294.339 119.745 294.769 120.329 295.061C120.913 295.335 121.583 295.473 122.338 295.473C123.042 295.473 123.704 295.387 124.322 295.215C124.957 295.026 125.472 294.812 125.867 294.571C126.142 294.743 126.374 294.983 126.563 295.292C126.752 295.602 126.846 295.928 126.846 296.271C126.846 297.044 126.486 297.619 125.764 297.997C125.215 298.289 124.597 298.487 123.91 298.59C123.223 298.693 122.579 298.744 121.978 298.744ZM121.256 288.621C120.844 288.621 120.484 288.69 120.175 288.827C119.883 288.964 119.642 289.145 119.453 289.368C119.264 289.574 119.118 289.814 119.015 290.089C118.93 290.347 118.878 290.613 118.861 290.888L123.266 290.166C123.214 289.823 123.025 289.479 122.699 289.136C122.373 288.793 121.892 288.621 121.256 288.621ZM143.663 292.562C143.663 293.489 143.499 294.339 143.173 295.112C142.864 295.868 142.409 296.52 141.808 297.07C141.207 297.602 140.477 298.014 139.618 298.306C138.76 298.598 137.789 298.744 136.708 298.744C135.626 298.744 134.655 298.598 133.797 298.306C132.938 298.014 132.208 297.602 131.607 297.07C131.006 296.52 130.543 295.868 130.216 295.112C129.907 294.339 129.753 293.489 129.753 292.562V282.722C129.941 282.688 130.242 282.645 130.654 282.593C131.066 282.524 131.461 282.49 131.839 282.49C132.234 282.49 132.578 282.524 132.869 282.593C133.179 282.645 133.436 282.748 133.642 282.902C133.848 283.057 134.003 283.272 134.106 283.546C134.209 283.821 134.26 284.182 134.26 284.628V292.485C134.26 293.309 134.484 293.953 134.93 294.417C135.394 294.88 135.986 295.112 136.708 295.112C137.446 295.112 138.038 294.88 138.485 294.417C138.931 293.953 139.155 293.309 139.155 292.485V282.722C139.344 282.688 139.644 282.645 140.056 282.593C140.468 282.524 140.863 282.49 141.241 282.49C141.636 282.49 141.98 282.524 142.272 282.593C142.581 282.645 142.838 282.748 143.044 282.902C143.25 283.057 143.405 283.272 143.508 283.546C143.611 283.821 143.663 284.182 143.663 284.628V292.562ZM152.345 285.427C153.375 285.427 154.328 285.564 155.204 285.839C156.097 286.096 156.861 286.5 157.497 287.05C158.132 287.599 158.63 288.295 158.991 289.136C159.351 289.96 159.532 290.948 159.532 292.098C159.532 293.197 159.377 294.159 159.068 294.983C158.759 295.808 158.321 296.503 157.754 297.07C157.188 297.619 156.501 298.032 155.694 298.306C154.904 298.581 154.019 298.718 153.04 298.718C152.302 298.718 151.615 298.607 150.98 298.384V302.66C150.808 302.711 150.533 302.763 150.155 302.814C149.778 302.883 149.391 302.917 148.996 302.917C148.619 302.917 148.275 302.891 147.966 302.84C147.674 302.788 147.425 302.685 147.219 302.531C147.013 302.376 146.858 302.162 146.755 301.887C146.652 301.629 146.601 301.286 146.601 300.856V288.492C146.601 288.028 146.695 287.651 146.884 287.359C147.09 287.067 147.365 286.801 147.708 286.56C148.241 286.217 148.902 285.942 149.692 285.736C150.482 285.53 151.366 285.427 152.345 285.427ZM152.397 295.267C154.165 295.267 155.05 294.211 155.05 292.098C155.05 290.999 154.826 290.184 154.38 289.651C153.951 289.119 153.324 288.853 152.5 288.853C152.173 288.853 151.881 288.896 151.624 288.981C151.366 289.05 151.143 289.136 150.954 289.239V294.906C151.16 295.009 151.383 295.095 151.624 295.164C151.864 295.232 152.122 295.267 152.397 295.267Z" fill="url(#paint3_linear_7340_7381)"/>
<path d="M27.5447 330.241C27.5447 329.708 27.6757 329.22 27.9375 328.779C28.1993 328.339 28.549 327.989 28.9865 327.73C29.4273 327.469 29.9145 327.338 30.4482 327.338C30.9122 327.338 31.3414 327.439 31.7358 327.641C32.1302 327.84 32.4567 328.113 32.7152 328.461C32.9737 328.809 33.1312 329.2 33.1875 329.635H31.8949C31.8352 329.326 31.6662 329.074 31.3878 328.879C31.1127 328.68 30.7995 328.581 30.4482 328.581C30.1432 328.581 29.8648 328.655 29.6129 328.804C29.361 328.953 29.1605 329.154 29.0114 329.406C28.8622 329.654 28.7876 329.933 28.7876 330.241C28.7876 330.546 28.8622 330.824 29.0114 331.076C29.1605 331.328 29.361 331.529 29.6129 331.678C29.8648 331.827 30.1432 331.902 30.4482 331.902C30.7995 331.902 31.0994 331.804 31.348 331.608C31.5966 331.409 31.7524 331.156 31.8153 330.848H33.108C33.0516 331.282 32.9008 331.673 32.6555 332.021C32.4103 332.369 32.0971 332.644 31.7159 332.846C31.3348 333.045 30.9122 333.145 30.4482 333.145C29.9145 333.145 29.4273 333.015 28.9865 332.757C28.549 332.495 28.1993 332.144 27.9375 331.703C27.6757 331.262 27.5447 330.775 27.5447 330.241ZM30.4034 335.491C29.6809 335.491 29.0014 335.355 28.3651 335.083C27.732 334.812 27.1735 334.435 26.6896 333.955C26.209 333.471 25.8312 332.913 25.5561 332.279C25.2843 331.646 25.1501 330.967 25.1534 330.241C25.1567 329.515 25.2943 328.836 25.5661 328.203C25.8411 327.57 26.219 327.013 26.6996 326.532C27.1802 326.048 27.737 325.671 28.37 325.399C29.0031 325.127 29.6809 324.991 30.4034 324.991C31.1293 324.991 31.8087 325.127 32.4418 325.399C33.0781 325.671 33.6349 326.048 34.1122 326.532C34.5928 327.013 34.969 327.57 35.2408 328.203C35.5125 328.836 35.6501 329.515 35.6534 330.241C35.6567 330.967 35.5225 331.646 35.2507 332.279C34.9789 332.913 34.6027 333.471 34.1222 333.955C33.6416 334.435 33.0831 334.812 32.4467 335.083C31.8104 335.355 31.1293 335.491 30.4034 335.491ZM30.4034 334.169C30.947 334.169 31.4574 334.068 31.9347 333.865C32.4119 333.663 32.8295 333.383 33.1875 333.025C33.5488 332.664 33.8305 332.246 34.0327 331.772C34.2348 331.295 34.3343 330.786 34.331 330.246C34.331 329.703 34.2282 329.192 34.0227 328.715C33.8205 328.238 33.5388 327.82 33.1776 327.462C32.8196 327.101 32.4036 326.819 31.9297 326.617C31.4557 326.415 30.947 326.314 30.4034 326.314C29.8632 326.314 29.3561 326.415 28.8821 326.617C28.4081 326.819 27.9905 327.101 27.6293 327.462C27.2713 327.823 26.9896 328.243 26.7841 328.72C26.5786 329.194 26.4759 329.703 26.4759 330.246C26.4725 330.783 26.572 331.29 26.7741 331.767C26.9796 332.241 27.2614 332.659 27.6193 333.02C27.9806 333.378 28.3982 333.66 28.8722 333.865C29.3494 334.068 29.8598 334.169 30.4034 334.169ZM41.495 335.332V334.218L44.9403 330.649C45.3082 330.261 45.6115 329.921 45.8501 329.63C46.0921 329.335 46.2727 329.055 46.392 328.789C46.5114 328.524 46.571 328.243 46.571 327.944C46.571 327.606 46.4915 327.315 46.3324 327.069C46.1733 326.821 45.9562 326.63 45.6811 326.498C45.406 326.362 45.0961 326.294 44.7514 326.294C44.3868 326.294 44.0687 326.368 43.7969 326.517C43.5251 326.667 43.3163 326.877 43.1705 327.149C43.0246 327.421 42.9517 327.739 42.9517 328.103H41.4851C41.4851 327.484 41.6276 326.942 41.9126 326.478C42.1977 326.014 42.5888 325.654 43.0859 325.399C43.5831 325.14 44.1482 325.011 44.7812 325.011C45.4209 325.011 45.9844 325.139 46.4716 325.394C46.9621 325.646 47.3449 325.99 47.62 326.428C47.8951 326.862 48.0327 327.353 48.0327 327.9C48.0327 328.277 47.9614 328.647 47.8189 329.008C47.6797 329.369 47.4361 329.772 47.0881 330.216C46.7401 330.657 46.2562 331.192 45.6364 331.822L43.6129 333.94V334.015H48.1967V335.332H41.495ZM53.6257 335.501C52.8402 335.498 52.169 335.291 51.6122 334.88C51.0554 334.469 50.6295 333.87 50.3345 333.085C50.0395 332.299 49.892 331.353 49.892 330.246C49.892 329.142 50.0395 328.199 50.3345 327.417C50.6328 326.635 51.0604 326.038 51.6172 325.627C52.1773 325.217 52.8468 325.011 53.6257 325.011C54.4046 325.011 55.0724 325.218 55.6293 325.632C56.1861 326.043 56.612 326.64 56.907 327.422C57.2053 328.201 57.3544 329.142 57.3544 330.246C57.3544 331.356 57.2069 332.304 56.9119 333.09C56.617 333.872 56.1911 334.47 55.6342 334.885C55.0774 335.296 54.4079 335.501 53.6257 335.501ZM53.6257 334.174C54.3151 334.174 54.8537 333.837 55.2415 333.164C55.6326 332.492 55.8281 331.519 55.8281 330.246C55.8281 329.401 55.7386 328.687 55.5597 328.103C55.384 327.517 55.1304 327.073 54.799 326.771C54.4709 326.466 54.0798 326.314 53.6257 326.314C52.9396 326.314 52.401 326.652 52.0099 327.328C51.6188 328.004 51.4216 328.977 51.4183 330.246C51.4183 331.095 51.5062 331.812 51.6818 332.399C51.8608 332.982 52.1143 333.425 52.4425 333.726C52.7706 334.025 53.165 334.174 53.6257 334.174ZM59.1181 335.332V334.218L62.5634 330.649C62.9313 330.261 63.2346 329.921 63.4732 329.63C63.7151 329.335 63.8958 329.055 64.0151 328.789C64.1344 328.524 64.1941 328.243 64.1941 327.944C64.1941 327.606 64.1145 327.315 63.9554 327.069C63.7963 326.821 63.5792 326.63 63.3042 326.498C63.0291 326.362 62.7192 326.294 62.3745 326.294C62.0099 326.294 61.6917 326.368 61.4199 326.517C61.1481 326.667 60.9393 326.877 60.7935 327.149C60.6477 327.421 60.5748 327.739 60.5748 328.103H59.1081C59.1081 327.484 59.2507 326.942 59.5357 326.478C59.8207 326.014 60.2118 325.654 60.709 325.399C61.2061 325.14 61.7712 325.011 62.4043 325.011C63.044 325.011 63.6074 325.139 64.0946 325.394C64.5852 325.646 64.968 325.99 65.2431 326.428C65.5182 326.862 65.6557 327.353 65.6557 327.9C65.6557 328.277 65.5845 328.647 65.4419 329.008C65.3027 329.369 65.0591 329.772 64.7111 330.216C64.3631 330.657 63.8792 331.192 63.2594 331.822L61.236 333.94V334.015H65.8198V335.332H59.1181ZM67.2715 333.343V332.1L71.6713 325.15H72.6507V326.98H72.0293L68.8823 331.961V332.041H74.9128V333.343H67.2715ZM72.0989 335.332V332.966L72.1088 332.399V325.15H73.5655V335.332H72.0989ZM80.2262 335.332V334.308L85.5806 326.473H80.1815V325.15H87.4599V326.174L82.1055 334.01H87.5046V335.332H80.2262ZM92.5284 335.486C91.8125 335.486 91.1877 335.322 90.6541 334.994C90.1205 334.666 89.7062 334.207 89.4112 333.617C89.1162 333.027 88.9688 332.337 88.9688 331.549C88.9688 330.757 89.1162 330.064 89.4112 329.471C89.7062 328.877 90.1205 328.417 90.6541 328.088C91.1877 327.76 91.8125 327.596 92.5284 327.596C93.2443 327.596 93.8691 327.76 94.4027 328.088C94.9363 328.417 95.3506 328.877 95.6456 329.471C95.9406 330.064 96.0881 330.757 96.0881 331.549C96.0881 332.337 95.9406 333.027 95.6456 333.617C95.3506 334.207 94.9363 334.666 94.4027 334.994C93.8691 335.322 93.2443 335.486 92.5284 335.486ZM92.5334 334.238C92.9974 334.238 93.3819 334.116 93.6868 333.87C93.9917 333.625 94.2171 333.299 94.3629 332.891C94.5121 332.483 94.5866 332.034 94.5866 331.544C94.5866 331.056 94.5121 330.609 94.3629 330.201C94.2171 329.79 93.9917 329.461 93.6868 329.212C93.3819 328.963 92.9974 328.839 92.5334 328.839C92.0661 328.839 91.6783 328.963 91.37 329.212C91.0651 329.461 90.8381 329.79 90.6889 330.201C90.5431 330.609 90.4702 331.056 90.4702 331.544C90.4702 332.034 90.5431 332.483 90.6889 332.891C90.8381 333.299 91.0651 333.625 91.37 333.87C91.6783 334.116 92.0661 334.238 92.5334 334.238ZM99.2338 330.798V335.332H97.7473V327.696H99.1742V328.939H99.2686C99.4443 328.534 99.7194 328.209 100.094 327.964C100.472 327.719 100.947 327.596 101.521 327.596C102.041 327.596 102.497 327.706 102.888 327.924C103.279 328.14 103.582 328.461 103.798 328.889C104.013 329.316 104.121 329.845 104.121 330.475V335.332H102.634V330.654C102.634 330.1 102.49 329.668 102.202 329.356C101.914 329.041 101.517 328.884 101.014 328.884C100.669 328.884 100.362 328.958 100.094 329.108C99.8288 329.257 99.6183 329.475 99.4625 329.764C99.3101 330.049 99.2338 330.394 99.2338 330.798ZM109.406 335.486C108.653 335.486 108.005 335.325 107.462 335.004C106.922 334.679 106.504 334.223 106.209 333.637C105.917 333.047 105.771 332.356 105.771 331.564C105.771 330.781 105.917 330.092 106.209 329.495C106.504 328.899 106.915 328.433 107.442 328.098C107.972 327.764 108.592 327.596 109.301 327.596C109.732 327.596 110.15 327.667 110.554 327.81C110.959 327.953 111.321 328.176 111.643 328.481C111.964 328.786 112.218 329.182 112.404 329.669C112.589 330.153 112.682 330.742 112.682 331.434V331.961H106.612V330.848H111.225C111.225 330.457 111.146 330.11 110.987 329.809C110.828 329.504 110.604 329.263 110.316 329.088C110.03 328.912 109.696 328.824 109.311 328.824C108.894 328.824 108.529 328.927 108.218 329.132C107.909 329.335 107.671 329.6 107.502 329.928C107.336 330.253 107.253 330.606 107.253 330.987V331.857C107.253 332.367 107.343 332.801 107.521 333.159C107.704 333.517 107.957 333.791 108.282 333.98C108.607 334.165 108.986 334.258 109.421 334.258C109.702 334.258 109.959 334.218 110.191 334.139C110.423 334.056 110.624 333.933 110.793 333.771C110.962 333.609 111.091 333.408 111.181 333.169L112.588 333.423C112.475 333.837 112.273 334.2 111.981 334.512C111.693 334.82 111.33 335.06 110.892 335.233C110.458 335.402 109.963 335.486 109.406 335.486ZM120.998 325.15H122.539V331.847C122.539 332.56 122.372 333.191 122.037 333.741C121.703 334.288 121.232 334.719 120.625 335.034C120.019 335.345 119.308 335.501 118.493 335.501C117.681 335.501 116.971 335.345 116.365 335.034C115.758 334.719 115.288 334.288 114.953 333.741C114.618 333.191 114.451 332.56 114.451 331.847V325.15H115.987V331.723C115.987 332.183 116.088 332.593 116.29 332.951C116.496 333.309 116.786 333.59 117.16 333.796C117.535 333.998 117.979 334.099 118.493 334.099C119.01 334.099 119.455 333.998 119.83 333.796C120.208 333.59 120.496 333.309 120.695 332.951C120.897 332.593 120.998 332.183 120.998 331.723V325.15ZM124.654 338.196V327.696H126.105V328.934H126.23C126.316 328.775 126.44 328.591 126.602 328.382C126.765 328.173 126.99 327.991 127.279 327.835C127.567 327.676 127.948 327.596 128.422 327.596C129.039 327.596 129.589 327.752 130.073 328.064C130.557 328.375 130.936 328.824 131.211 329.411C131.49 329.998 131.629 330.703 131.629 331.529C131.629 332.354 131.491 333.062 131.216 333.652C130.941 334.238 130.563 334.691 130.083 335.009C129.602 335.324 129.053 335.481 128.437 335.481C127.973 335.481 127.593 335.403 127.298 335.248C127.007 335.092 126.778 334.909 126.612 334.701C126.447 334.492 126.319 334.306 126.23 334.144H126.14V338.196H124.654ZM126.11 331.514C126.11 332.051 126.188 332.521 126.344 332.926C126.5 333.33 126.725 333.647 127.02 333.875C127.315 334.101 127.676 334.213 128.104 334.213C128.548 334.213 128.919 334.096 129.218 333.86C129.516 333.622 129.741 333.299 129.894 332.891C130.049 332.483 130.127 332.024 130.127 331.514C130.127 331.01 130.051 330.558 129.899 330.157C129.749 329.756 129.524 329.439 129.222 329.207C128.924 328.975 128.551 328.859 128.104 328.859C127.673 328.859 127.308 328.97 127.01 329.192C126.715 329.414 126.491 329.724 126.339 330.122C126.186 330.52 126.11 330.984 126.11 331.514ZM138.655 325.15V335.332H137.119V325.15H138.655ZM142.259 330.798V335.332H140.773V327.696H142.2V328.939H142.294C142.47 328.534 142.745 328.209 143.119 327.964C143.497 327.719 143.973 327.596 144.546 327.596C145.067 327.596 145.522 327.706 145.913 327.924C146.304 328.14 146.608 328.461 146.823 328.889C147.039 329.316 147.146 329.845 147.146 330.475V335.332H145.66V330.654C145.66 330.1 145.516 329.668 145.227 329.356C144.939 329.041 144.543 328.884 144.039 328.884C143.694 328.884 143.388 328.958 143.119 329.108C142.854 329.257 142.644 329.475 142.488 329.764C142.335 330.049 142.259 330.394 142.259 330.798ZM152.357 335.486C151.617 335.486 150.981 335.319 150.447 334.984C149.917 334.646 149.509 334.18 149.224 333.587C148.939 332.994 148.797 332.314 148.797 331.549C148.797 330.773 148.943 330.089 149.234 329.495C149.526 328.899 149.937 328.433 150.467 328.098C150.998 327.764 151.622 327.596 152.342 327.596C152.922 327.596 153.439 327.704 153.893 327.919C154.347 328.132 154.713 328.43 154.991 328.814C155.273 329.199 155.441 329.648 155.494 330.162H154.047C153.967 329.804 153.785 329.495 153.5 329.237C153.218 328.978 152.84 328.849 152.366 328.849C151.952 328.849 151.589 328.958 151.278 329.177C150.969 329.393 150.729 329.701 150.557 330.102C150.384 330.5 150.298 330.97 150.298 331.514C150.298 332.071 150.383 332.551 150.552 332.956C150.721 333.36 150.96 333.673 151.268 333.895C151.579 334.117 151.946 334.228 152.366 334.228C152.648 334.228 152.903 334.177 153.132 334.074C153.364 333.968 153.558 333.817 153.714 333.622C153.873 333.426 153.984 333.191 154.047 332.916H155.494C155.441 333.41 155.28 333.85 155.011 334.238C154.743 334.626 154.383 334.931 153.933 335.153C153.485 335.375 152.96 335.486 152.357 335.486ZM158.063 335.426C157.791 335.426 157.557 335.33 157.362 335.138C157.166 334.943 157.068 334.707 157.068 334.432C157.068 334.16 157.166 333.928 157.362 333.736C157.557 333.541 157.791 333.443 158.063 333.443C158.334 333.443 158.568 333.541 158.764 333.736C158.959 333.928 159.057 334.16 159.057 334.432C159.057 334.614 159.011 334.782 158.918 334.934C158.828 335.083 158.709 335.203 158.56 335.292C158.411 335.382 158.245 335.426 158.063 335.426ZM173.165 328.461H171.614C171.554 328.13 171.443 327.838 171.281 327.586C171.118 327.334 170.92 327.121 170.684 326.945C170.449 326.769 170.185 326.637 169.894 326.547C169.605 326.458 169.299 326.413 168.974 326.413C168.387 326.413 167.862 326.56 167.398 326.855C166.937 327.15 166.573 327.583 166.304 328.153C166.039 328.723 165.907 329.419 165.907 330.241C165.907 331.07 166.039 331.769 166.304 332.339C166.573 332.909 166.939 333.34 167.403 333.632C167.867 333.923 168.389 334.069 168.969 334.069C169.291 334.069 169.596 334.026 169.884 333.94C170.176 333.85 170.439 333.72 170.674 333.547C170.91 333.375 171.109 333.164 171.271 332.916C171.437 332.664 171.551 332.376 171.614 332.051L173.165 332.056C173.082 332.556 172.922 333.017 172.683 333.438C172.448 333.855 172.144 334.217 171.773 334.522C171.405 334.823 170.984 335.057 170.51 335.223C170.036 335.388 169.519 335.471 168.959 335.471C168.078 335.471 167.292 335.262 166.603 334.845C165.913 334.424 165.37 333.822 164.972 333.04C164.578 332.258 164.38 331.325 164.38 330.241C164.38 329.154 164.579 328.221 164.977 327.442C165.375 326.66 165.918 326.06 166.608 325.642C167.297 325.221 168.081 325.011 168.959 325.011C169.499 325.011 170.003 325.089 170.471 325.245C170.941 325.397 171.364 325.623 171.738 325.921C172.113 326.216 172.423 326.577 172.668 327.005C172.913 327.429 173.079 327.914 173.165 328.461ZM178.101 335.486C177.385 335.486 176.76 335.322 176.226 334.994C175.693 334.666 175.278 334.207 174.983 333.617C174.689 333.027 174.541 332.337 174.541 331.549C174.541 330.757 174.689 330.064 174.983 329.471C175.278 328.877 175.693 328.417 176.226 328.088C176.76 327.76 177.385 327.596 178.101 327.596C178.817 327.596 179.441 327.76 179.975 328.088C180.509 328.417 180.923 328.877 181.218 329.471C181.513 330.064 181.66 330.757 181.66 331.549C181.66 332.337 181.513 333.027 181.218 333.617C180.923 334.207 180.509 334.666 179.975 334.994C179.441 335.322 178.817 335.486 178.101 335.486ZM178.106 334.238C178.57 334.238 178.954 334.116 179.259 333.87C179.564 333.625 179.789 333.299 179.935 332.891C180.084 332.483 180.159 332.034 180.159 331.544C180.159 331.056 180.084 330.609 179.935 330.201C179.789 329.79 179.564 329.461 179.259 329.212C178.954 328.963 178.57 328.839 178.106 328.839C177.638 328.839 177.251 328.963 176.942 329.212C176.637 329.461 176.41 329.79 176.261 330.201C176.115 330.609 176.042 331.056 176.042 331.544C176.042 332.034 176.115 332.483 176.261 332.891C176.41 333.299 176.637 333.625 176.942 333.87C177.251 334.116 177.638 334.238 178.106 334.238ZM183.32 338.196V327.696H184.771V328.934H184.896C184.982 328.775 185.106 328.591 185.268 328.382C185.431 328.173 185.656 327.991 185.945 327.835C186.233 327.676 186.614 327.596 187.088 327.596C187.705 327.596 188.255 327.752 188.739 328.064C189.223 328.375 189.602 328.824 189.877 329.411C190.156 329.998 190.295 330.703 190.295 331.529C190.295 332.354 190.157 333.062 189.882 333.652C189.607 334.238 189.229 334.691 188.749 335.009C188.268 335.324 187.719 335.481 187.103 335.481C186.639 335.481 186.259 335.403 185.964 335.248C185.673 335.092 185.444 334.909 185.278 334.701C185.113 334.492 184.985 334.306 184.896 334.144H184.806V338.196H183.32ZM184.776 331.514C184.776 332.051 184.854 332.521 185.01 332.926C185.166 333.33 185.391 333.647 185.686 333.875C185.981 334.101 186.342 334.213 186.77 334.213C187.214 334.213 187.585 334.096 187.884 333.86C188.182 333.622 188.407 333.299 188.56 332.891C188.715 332.483 188.793 332.024 188.793 331.514C188.793 331.01 188.717 330.558 188.565 330.157C188.415 329.756 188.19 329.439 187.888 329.207C187.59 328.975 187.217 328.859 186.77 328.859C186.339 328.859 185.974 328.97 185.676 329.192C185.381 329.414 185.157 329.724 185.005 330.122C184.853 330.52 184.776 330.984 184.776 331.514ZM192.64 338.196C192.418 338.196 192.216 338.177 192.034 338.141C191.851 338.108 191.715 338.071 191.626 338.032L191.984 336.814C192.256 336.886 192.498 336.918 192.71 336.908C192.922 336.898 193.109 336.819 193.271 336.669C193.437 336.52 193.583 336.277 193.709 335.939L193.893 335.431L191.099 327.696H192.69L194.624 333.622H194.703L196.637 327.696H198.233L195.086 336.351C194.94 336.749 194.755 337.085 194.529 337.36C194.304 337.639 194.035 337.848 193.724 337.987C193.412 338.126 193.051 338.196 192.64 338.196ZM199.63 335.332V327.696H201.067V328.909H201.146C201.286 328.498 201.531 328.175 201.882 327.939C202.237 327.701 202.638 327.581 203.085 327.581C203.178 327.581 203.288 327.585 203.414 327.591C203.543 327.598 203.644 327.606 203.717 327.616V329.038C203.657 329.021 203.551 329.003 203.399 328.983C203.246 328.96 203.094 328.949 202.941 328.949C202.59 328.949 202.277 329.023 202.002 329.172C201.73 329.318 201.514 329.522 201.355 329.784C201.196 330.042 201.117 330.337 201.117 330.669V335.332H199.63ZM205.003 335.332V327.696H206.49V335.332H205.003ZM205.754 326.517C205.495 326.517 205.273 326.431 205.088 326.259C204.905 326.083 204.814 325.874 204.814 325.632C204.814 325.387 204.905 325.178 205.088 325.006C205.273 324.83 205.495 324.743 205.754 324.743C206.012 324.743 206.233 324.83 206.415 325.006C206.601 325.178 206.694 325.387 206.694 325.632C206.694 325.874 206.601 326.083 206.415 326.259C206.233 326.431 206.012 326.517 205.754 326.517ZM211.691 338.355C211.085 338.355 210.563 338.275 210.125 338.116C209.691 337.957 209.336 337.747 209.061 337.485C208.786 337.223 208.581 336.936 208.445 336.625L209.722 336.098C209.812 336.243 209.931 336.398 210.08 336.56C210.233 336.726 210.438 336.867 210.697 336.983C210.959 337.099 211.295 337.157 211.706 337.157C212.27 337.157 212.735 337.019 213.103 336.744C213.471 336.472 213.655 336.038 213.655 335.441V333.94H213.561C213.471 334.102 213.342 334.283 213.173 334.482C213.007 334.681 212.778 334.853 212.487 334.999C212.195 335.145 211.816 335.218 211.348 335.218C210.745 335.218 210.201 335.077 209.718 334.795C209.237 334.51 208.856 334.091 208.574 333.537C208.296 332.98 208.156 332.296 208.156 331.484C208.156 330.672 208.294 329.976 208.569 329.396C208.847 328.816 209.229 328.372 209.713 328.064C210.196 327.752 210.745 327.596 211.358 327.596C211.832 327.596 212.215 327.676 212.507 327.835C212.798 327.991 213.025 328.173 213.188 328.382C213.353 328.591 213.481 328.775 213.57 328.934H213.68V327.696H215.137V335.501C215.137 336.157 214.984 336.696 214.679 337.117C214.374 337.538 213.962 337.849 213.441 338.051C212.924 338.254 212.341 338.355 211.691 338.355ZM211.676 333.985C212.104 333.985 212.465 333.885 212.76 333.686C213.058 333.484 213.284 333.196 213.436 332.821C213.592 332.444 213.67 331.991 213.67 331.464C213.67 330.95 213.594 330.498 213.441 330.107C213.289 329.716 213.065 329.411 212.77 329.192C212.475 328.97 212.11 328.859 211.676 328.859C211.229 328.859 210.856 328.975 210.558 329.207C210.259 329.436 210.034 329.747 209.882 330.142C209.732 330.536 209.658 330.977 209.658 331.464C209.658 331.965 209.734 332.404 209.887 332.782C210.039 333.159 210.264 333.454 210.563 333.667C210.864 333.879 211.235 333.985 211.676 333.985ZM218.617 330.798V335.332H217.13V325.15H218.597V328.939H218.691C218.87 328.528 219.144 328.201 219.512 327.959C219.879 327.717 220.36 327.596 220.953 327.596C221.477 327.596 221.934 327.704 222.325 327.919C222.72 328.135 223.025 328.456 223.24 328.884C223.459 329.308 223.568 329.838 223.568 330.475V335.332H222.082V330.654C222.082 330.094 221.938 329.659 221.649 329.351C221.361 329.04 220.96 328.884 220.446 328.884C220.095 328.884 219.78 328.958 219.502 329.108C219.227 329.257 219.009 329.475 218.85 329.764C218.695 330.049 218.617 330.394 218.617 330.798ZM229.117 327.696V328.889H224.945V327.696H229.117ZM226.064 325.866H227.551V333.09C227.551 333.378 227.594 333.595 227.68 333.741C227.766 333.884 227.877 333.981 228.013 334.034C228.152 334.084 228.303 334.109 228.465 334.109C228.585 334.109 228.689 334.101 228.779 334.084C228.868 334.068 228.938 334.054 228.987 334.044L229.256 335.272C229.17 335.306 229.047 335.339 228.888 335.372C228.729 335.408 228.53 335.428 228.291 335.431C227.9 335.438 227.536 335.368 227.198 335.223C226.86 335.077 226.586 334.851 226.377 334.547C226.169 334.242 226.064 333.859 226.064 333.398V325.866ZM236.688 335.501C236.204 335.501 235.767 335.412 235.376 335.233C234.985 335.05 234.675 334.787 234.446 334.442C234.221 334.097 234.108 333.675 234.108 333.174C234.108 332.743 234.191 332.389 234.357 332.11C234.522 331.832 234.746 331.612 235.028 331.449C235.31 331.287 235.624 331.164 235.972 331.081C236.32 330.998 236.675 330.935 237.036 330.892C237.494 330.839 237.865 330.796 238.15 330.763C238.435 330.727 238.642 330.669 238.771 330.589C238.901 330.51 238.965 330.38 238.965 330.201V330.167C238.965 329.732 238.843 329.396 238.597 329.157C238.356 328.919 237.994 328.799 237.514 328.799C237.013 328.799 236.619 328.91 236.33 329.132C236.045 329.351 235.848 329.595 235.739 329.863L234.342 329.545C234.508 329.081 234.749 328.707 235.068 328.422C235.389 328.133 235.759 327.924 236.176 327.795C236.594 327.663 237.033 327.596 237.494 327.596C237.799 327.596 238.122 327.633 238.463 327.706C238.808 327.775 239.129 327.904 239.428 328.093C239.729 328.282 239.976 328.552 240.169 328.904C240.361 329.252 240.457 329.704 240.457 330.261V335.332H239.005V334.288H238.945C238.849 334.48 238.705 334.669 238.513 334.855C238.321 335.04 238.074 335.194 237.772 335.317C237.471 335.44 237.109 335.501 236.688 335.501ZM237.012 334.308C237.423 334.308 237.774 334.227 238.066 334.064C238.36 333.902 238.584 333.69 238.737 333.428C238.892 333.163 238.97 332.879 238.97 332.578V331.593C238.917 331.646 238.815 331.696 238.662 331.743C238.513 331.786 238.342 331.824 238.15 331.857C237.958 331.887 237.771 331.915 237.588 331.941C237.406 331.965 237.253 331.984 237.131 332.001C236.843 332.038 236.579 332.099 236.34 332.185C236.105 332.271 235.916 332.395 235.774 332.558C235.634 332.717 235.565 332.929 235.565 333.194C235.565 333.562 235.701 333.841 235.972 334.029C236.244 334.215 236.591 334.308 237.012 334.308ZM243.923 330.798V335.332H242.437V327.696H243.864V328.939H243.958C244.134 328.534 244.409 328.209 244.783 327.964C245.161 327.719 245.637 327.596 246.21 327.596C246.731 327.596 247.186 327.706 247.577 327.924C247.969 328.14 248.272 328.461 248.487 328.889C248.703 329.316 248.81 329.845 248.81 330.475V335.332H247.324V330.654C247.324 330.1 247.18 329.668 246.891 329.356C246.603 329.041 246.207 328.884 245.703 328.884C245.358 328.884 245.052 328.958 244.783 329.108C244.518 329.257 244.308 329.475 244.152 329.764C244 330.049 243.923 330.394 243.923 330.798ZM253.663 335.481C253.046 335.481 252.496 335.324 252.012 335.009C251.531 334.691 251.154 334.238 250.879 333.652C250.607 333.062 250.471 332.354 250.471 331.529C250.471 330.703 250.608 329.998 250.884 329.411C251.162 328.824 251.543 328.375 252.027 328.064C252.511 327.752 253.059 327.596 253.673 327.596C254.147 327.596 254.528 327.676 254.816 327.835C255.108 327.991 255.333 328.173 255.492 328.382C255.655 328.591 255.781 328.775 255.87 328.934H255.96V325.15H257.446V335.332H255.994V334.144H255.87C255.781 334.306 255.651 334.492 255.482 334.701C255.317 334.909 255.088 335.092 254.796 335.248C254.504 335.403 254.127 335.481 253.663 335.481ZM253.991 334.213C254.418 334.213 254.78 334.101 255.075 333.875C255.373 333.647 255.598 333.33 255.751 332.926C255.906 332.521 255.984 332.051 255.984 331.514C255.984 330.984 255.908 330.52 255.756 330.122C255.603 329.724 255.379 329.414 255.085 329.192C254.79 328.97 254.425 328.859 253.991 328.859C253.543 328.859 253.17 328.975 252.872 329.207C252.574 329.439 252.348 329.756 252.196 330.157C252.047 330.558 251.972 331.01 251.972 331.514C251.972 332.024 252.049 332.483 252.201 332.891C252.353 333.299 252.579 333.622 252.877 333.86C253.179 334.096 253.55 334.213 253.991 334.213ZM263.273 335.332V327.696H264.71V328.909H264.789C264.928 328.498 265.174 328.175 265.525 327.939C265.879 327.701 266.281 327.581 266.728 327.581C266.821 327.581 266.93 327.585 267.056 327.591C267.185 327.598 267.286 327.606 267.359 327.616V329.038C267.3 329.021 267.194 329.003 267.041 328.983C266.889 328.96 266.736 328.949 266.584 328.949C266.232 328.949 265.919 329.023 265.644 329.172C265.372 329.318 265.157 329.522 264.998 329.784C264.839 330.042 264.759 330.337 264.759 330.669V335.332H263.273ZM268.646 335.332V327.696H270.132V335.332H268.646ZM269.396 326.517C269.138 326.517 268.916 326.431 268.73 326.259C268.548 326.083 268.457 325.874 268.457 325.632C268.457 325.387 268.548 325.178 268.73 325.006C268.916 324.83 269.138 324.743 269.396 324.743C269.655 324.743 269.875 324.83 270.058 325.006C270.243 325.178 270.336 325.387 270.336 325.632C270.336 325.874 270.243 326.083 270.058 326.259C269.875 326.431 269.655 326.517 269.396 326.517ZM275.334 338.355C274.727 338.355 274.205 338.275 273.768 338.116C273.334 337.957 272.979 337.747 272.704 337.485C272.429 337.223 272.223 336.936 272.087 336.625L273.365 336.098C273.455 336.243 273.574 336.398 273.723 336.56C273.875 336.726 274.081 336.867 274.339 336.983C274.601 337.099 274.938 337.157 275.349 337.157C275.912 337.157 276.378 337.019 276.746 336.744C277.114 336.472 277.298 336.038 277.298 335.441V333.94H277.203C277.114 334.102 276.984 334.283 276.815 334.482C276.65 334.681 276.421 334.853 276.129 334.999C275.838 335.145 275.458 335.218 274.991 335.218C274.388 335.218 273.844 335.077 273.36 334.795C272.879 334.51 272.498 334.091 272.217 333.537C271.938 332.98 271.799 332.296 271.799 331.484C271.799 330.672 271.937 329.976 272.212 329.396C272.49 328.816 272.871 328.372 273.355 328.064C273.839 327.752 274.388 327.596 275.001 327.596C275.475 327.596 275.857 327.676 276.149 327.835C276.441 327.991 276.668 328.173 276.83 328.382C276.996 328.591 277.124 328.775 277.213 328.934H277.322V327.696H278.779V335.501C278.779 336.157 278.627 336.696 278.322 337.117C278.017 337.538 277.604 337.849 277.084 338.051C276.567 338.254 275.983 338.355 275.334 338.355ZM275.319 333.985C275.746 333.985 276.108 333.885 276.403 333.686C276.701 333.484 276.926 333.196 277.079 332.821C277.235 332.444 277.312 331.991 277.312 331.464C277.312 330.95 277.236 330.498 277.084 330.107C276.931 329.716 276.708 329.411 276.413 329.192C276.118 328.97 275.753 328.859 275.319 328.859C274.871 328.859 274.499 328.975 274.2 329.207C273.902 329.436 273.677 329.747 273.524 330.142C273.375 330.536 273.3 330.977 273.3 331.464C273.3 331.965 273.377 332.404 273.529 332.782C273.682 333.159 273.907 333.454 274.205 333.667C274.507 333.879 274.878 333.985 275.319 333.985ZM282.259 330.798V335.332H280.773V325.15H282.239V328.939H282.334C282.513 328.528 282.786 328.201 283.154 327.959C283.522 327.717 284.003 327.596 284.596 327.596C285.12 327.596 285.577 327.704 285.968 327.919C286.362 328.135 286.667 328.456 286.883 328.884C287.102 329.308 287.211 329.838 287.211 330.475V335.332H285.724V330.654C285.724 330.094 285.58 329.659 285.292 329.351C285.004 329.04 284.603 328.884 284.089 328.884C283.737 328.884 283.423 328.958 283.144 329.108C282.869 329.257 282.652 329.475 282.493 329.764C282.337 330.049 282.259 330.394 282.259 330.798ZM292.759 327.696V328.889H288.588V327.696H292.759ZM289.707 325.866H291.193V333.09C291.193 333.378 291.236 333.595 291.322 333.741C291.409 333.884 291.52 333.981 291.656 334.034C291.795 334.084 291.946 334.109 292.108 334.109C292.227 334.109 292.332 334.101 292.421 334.084C292.511 334.068 292.58 334.054 292.63 334.044L292.898 335.272C292.812 335.306 292.69 335.339 292.531 335.372C292.371 335.408 292.173 335.428 291.934 335.431C291.543 335.438 291.178 335.368 290.84 335.223C290.502 335.077 290.229 334.851 290.02 334.547C289.811 334.242 289.707 333.859 289.707 333.398V325.866ZM300.003 329.56L298.656 329.799C298.599 329.626 298.51 329.462 298.387 329.306C298.268 329.151 298.105 329.023 297.9 328.924C297.694 328.824 297.438 328.775 297.129 328.775C296.708 328.775 296.357 328.869 296.075 329.058C295.794 329.243 295.653 329.484 295.653 329.779C295.653 330.034 295.747 330.239 295.936 330.395C296.125 330.551 296.43 330.679 296.851 330.778L298.064 331.056C298.767 331.219 299.29 331.469 299.635 331.807C299.98 332.145 300.152 332.584 300.152 333.125C300.152 333.582 300.019 333.99 299.754 334.348C299.492 334.702 299.126 334.981 298.656 335.183C298.188 335.385 297.646 335.486 297.03 335.486C296.175 335.486 295.477 335.304 294.937 334.939C294.397 334.571 294.065 334.049 293.942 333.373L295.379 333.154C295.469 333.529 295.653 333.812 295.931 334.005C296.21 334.194 296.572 334.288 297.02 334.288C297.507 334.288 297.897 334.187 298.188 333.985C298.48 333.779 298.626 333.529 298.626 333.234C298.626 332.995 298.536 332.795 298.357 332.632C298.182 332.47 297.911 332.347 297.547 332.265L296.254 331.981C295.542 331.819 295.015 331.56 294.673 331.206C294.335 330.851 294.166 330.402 294.166 329.858C294.166 329.408 294.292 329.013 294.544 328.675C294.796 328.337 295.144 328.074 295.588 327.885C296.032 327.692 296.541 327.596 297.114 327.596C297.94 327.596 298.589 327.775 299.063 328.133C299.537 328.488 299.85 328.963 300.003 329.56ZM305.491 335.332V327.696H306.928V328.909H307.008C307.147 328.498 307.392 328.175 307.744 327.939C308.098 327.701 308.499 327.581 308.947 327.581C309.04 327.581 309.149 327.585 309.275 327.591C309.404 327.598 309.505 327.606 309.578 327.616V329.038C309.518 329.021 309.412 329.003 309.26 328.983C309.107 328.96 308.955 328.949 308.803 328.949C308.451 328.949 308.138 329.023 307.863 329.172C307.591 329.318 307.376 329.522 307.217 329.784C307.058 330.042 306.978 330.337 306.978 330.669V335.332H305.491ZM313.882 335.486C313.13 335.486 312.482 335.325 311.938 335.004C311.398 334.679 310.981 334.223 310.686 333.637C310.394 333.047 310.248 332.356 310.248 331.564C310.248 330.781 310.394 330.092 310.686 329.495C310.981 328.899 311.392 328.433 311.919 328.098C312.449 327.764 313.069 327.596 313.778 327.596C314.209 327.596 314.626 327.667 315.031 327.81C315.435 327.953 315.798 328.176 316.119 328.481C316.441 328.786 316.695 329.182 316.88 329.669C317.066 330.153 317.159 330.742 317.159 331.434V331.961H311.088V330.848H315.702C315.702 330.457 315.622 330.11 315.463 329.809C315.304 329.504 315.08 329.263 314.792 329.088C314.507 328.912 314.172 328.824 313.788 328.824C313.37 328.824 313.006 328.927 312.694 329.132C312.386 329.335 312.147 329.6 311.978 329.928C311.812 330.253 311.73 330.606 311.73 330.987V331.857C311.73 332.367 311.819 332.801 311.998 333.159C312.18 333.517 312.434 333.791 312.759 333.98C313.084 334.165 313.463 334.258 313.897 334.258C314.179 334.258 314.436 334.218 314.668 334.139C314.9 334.056 315.1 333.933 315.269 333.771C315.438 333.609 315.568 333.408 315.657 333.169L317.064 333.423C316.951 333.837 316.749 334.2 316.458 334.512C316.169 334.82 315.806 335.06 315.369 335.233C314.935 335.402 314.439 335.486 313.882 335.486ZM324.53 329.56L323.183 329.799C323.127 329.626 323.037 329.462 322.914 329.306C322.795 329.151 322.633 329.023 322.427 328.924C322.222 328.824 321.965 328.775 321.657 328.775C321.236 328.775 320.884 328.869 320.603 329.058C320.321 329.243 320.18 329.484 320.18 329.779C320.18 330.034 320.275 330.239 320.463 330.395C320.652 330.551 320.957 330.679 321.378 330.778L322.591 331.056C323.294 331.219 323.818 331.469 324.162 331.807C324.507 332.145 324.679 332.584 324.679 333.125C324.679 333.582 324.547 333.99 324.282 334.348C324.02 334.702 323.654 334.981 323.183 335.183C322.716 335.385 322.174 335.486 321.557 335.486C320.702 335.486 320.004 335.304 319.464 334.939C318.924 334.571 318.592 334.049 318.47 333.373L319.907 333.154C319.996 333.529 320.18 333.812 320.458 334.005C320.737 334.194 321.1 334.288 321.547 334.288C322.034 334.288 322.424 334.187 322.716 333.985C323.007 333.779 323.153 333.529 323.153 333.234C323.153 332.995 323.064 332.795 322.885 332.632C322.709 332.47 322.439 332.347 322.074 332.265L320.782 331.981C320.069 331.819 319.542 331.56 319.201 331.206C318.863 330.851 318.694 330.402 318.694 329.858C318.694 329.408 318.819 329.013 319.071 328.675C319.323 328.337 319.671 328.074 320.115 327.885C320.56 327.692 321.068 327.596 321.642 327.596C322.467 327.596 323.117 327.775 323.591 328.133C324.065 328.488 324.378 328.963 324.53 329.56ZM329.605 335.486C328.853 335.486 328.205 335.325 327.661 335.004C327.121 334.679 326.703 334.223 326.408 333.637C326.117 333.047 325.971 332.356 325.971 331.564C325.971 330.781 326.117 330.092 326.408 329.495C326.703 328.899 327.114 328.433 327.641 328.098C328.171 327.764 328.791 327.596 329.501 327.596C329.931 327.596 330.349 327.667 330.753 327.81C331.158 327.953 331.521 328.176 331.842 328.481C332.164 328.786 332.417 329.182 332.603 329.669C332.788 330.153 332.881 330.742 332.881 331.434V331.961H326.811V330.848H331.425C331.425 330.457 331.345 330.11 331.186 329.809C331.027 329.504 330.803 329.263 330.515 329.088C330.23 328.912 329.895 328.824 329.51 328.824C329.093 328.824 328.728 328.927 328.417 329.132C328.108 329.335 327.87 329.6 327.701 329.928C327.535 330.253 327.452 330.606 327.452 330.987V331.857C327.452 332.367 327.542 332.801 327.721 333.159C327.903 333.517 328.157 333.791 328.481 333.98C328.806 334.165 329.186 334.258 329.62 334.258C329.902 334.258 330.158 334.218 330.39 334.139C330.622 334.056 330.823 333.933 330.992 333.771C331.161 333.609 331.29 333.408 331.38 333.169L332.787 333.423C332.674 333.837 332.472 334.2 332.18 334.512C331.892 334.82 331.529 335.06 331.091 335.233C330.657 335.402 330.162 335.486 329.605 335.486ZM334.531 335.332V327.696H335.967V328.909H336.047C336.186 328.498 336.431 328.175 336.783 327.939C337.137 327.701 337.538 327.581 337.986 327.581C338.079 327.581 338.188 327.585 338.314 327.591C338.443 327.598 338.544 327.606 338.617 327.616V329.038C338.558 329.021 338.451 329.003 338.299 328.983C338.147 328.96 337.994 328.949 337.842 328.949C337.49 328.949 337.177 329.023 336.902 329.172C336.63 329.318 336.415 329.522 336.256 329.784C336.097 330.042 336.017 330.337 336.017 330.669V335.332H334.531ZM346.669 327.696L343.9 335.332H342.309L339.534 327.696H341.13L343.064 333.572H343.144L345.073 327.696H346.669ZM351.097 335.486C350.345 335.486 349.697 335.325 349.153 335.004C348.613 334.679 348.195 334.223 347.9 333.637C347.609 333.047 347.463 332.356 347.463 331.564C347.463 330.781 347.609 330.092 347.9 329.495C348.195 328.899 348.606 328.433 349.133 328.098C349.664 327.764 350.283 327.596 350.993 327.596C351.424 327.596 351.841 327.667 352.246 327.81C352.65 327.953 353.013 328.176 353.334 328.481C353.656 328.786 353.909 329.182 354.095 329.669C354.281 330.153 354.373 330.742 354.373 331.434V331.961H348.303V330.848H352.917C352.917 330.457 352.837 330.11 352.678 329.809C352.519 329.504 352.295 329.263 352.007 329.088C351.722 328.912 351.387 328.824 351.003 328.824C350.585 328.824 350.22 328.927 349.909 329.132C349.601 329.335 349.362 329.6 349.193 329.928C349.027 330.253 348.944 330.606 348.944 330.987V331.857C348.944 332.367 349.034 332.801 349.213 333.159C349.395 333.517 349.649 333.791 349.974 333.98C350.298 334.165 350.678 334.258 351.112 334.258C351.394 334.258 351.651 334.218 351.883 334.139C352.115 334.056 352.315 333.933 352.484 333.771C352.653 333.609 352.782 333.408 352.872 333.169L354.279 333.423C354.166 333.837 353.964 334.2 353.672 334.512C353.384 334.82 353.021 335.06 352.584 335.233C352.149 335.402 351.654 335.486 351.097 335.486ZM358.881 335.481C358.265 335.481 357.715 335.324 357.231 335.009C356.75 334.691 356.372 334.238 356.097 333.652C355.826 333.062 355.69 332.354 355.69 331.529C355.69 330.703 355.827 329.998 356.102 329.411C356.381 328.824 356.762 328.375 357.246 328.064C357.73 327.752 358.278 327.596 358.891 327.596C359.365 327.596 359.746 327.676 360.035 327.835C360.326 327.991 360.552 328.173 360.711 328.382C360.873 328.591 360.999 328.775 361.089 328.934H361.178V325.15H362.665V335.332H361.213V334.144H361.089C360.999 334.306 360.87 334.492 360.701 334.701C360.535 334.909 360.307 335.092 360.015 335.248C359.723 335.403 359.345 335.481 358.881 335.481ZM359.21 334.213C359.637 334.213 359.998 334.101 360.293 333.875C360.592 333.647 360.817 333.33 360.969 332.926C361.125 332.521 361.203 332.051 361.203 331.514C361.203 330.984 361.127 330.52 360.974 330.122C360.822 329.724 360.598 329.414 360.303 329.192C360.008 328.97 359.644 328.859 359.21 328.859C358.762 328.859 358.389 328.975 358.091 329.207C357.793 329.439 357.567 329.756 357.415 330.157C357.266 330.558 357.191 331.01 357.191 331.514C357.191 332.024 357.267 332.483 357.42 332.891C357.572 333.299 357.798 333.622 358.096 333.86C358.397 334.096 358.769 334.213 359.21 334.213Z" fill="#333333"/>
<defs>
<linearGradient id="paint0_linear_7340_7381" x1="9.8191" y1="296.002" x2="19.2002" y2="318.238" gradientUnits="userSpaceOnUse">
<stop stop-color="#43CEA2"/>
<stop offset="0.931667" stop-color="#185A9D"/>
</linearGradient>
<linearGradient id="paint1_linear_7340_7381" x1="6.81359" y1="292.676" x2="43.4705" y2="326.595" gradientUnits="userSpaceOnUse">
<stop stop-color="#43CEA2"/>
<stop offset="0.931667" stop-color="#185A9D"/>
</linearGradient>
<linearGradient id="paint2_linear_7340_7381" x1="20.6647" y1="291.302" x2="42.4298" y2="311.441" gradientUnits="userSpaceOnUse">
<stop stop-color="#43CEA2"/>
<stop offset="0.931667" stop-color="#185A9D"/>
</linearGradient>
<linearGradient id="paint3_linear_7340_7381" x1="24.2588" y1="296.812" x2="58.81" y2="367.77" gradientUnits="userSpaceOnUse">
<stop stop-color="#43CEA2"/>
<stop offset="0.931667" stop-color="#185A9D"/>
</linearGradient>
</defs>
</svg>
