<svg width="438" height="114" viewBox="0 0 438 114" fill="none" xmlns="http://www.w3.org/2000/svg">
<rect x="0.523438" y="0.941406" width="437.41" height="112.81" rx="25.92" fill="#FCFCFC"/>
<rect x="58.125" y="67.7305" width="97.25" height="21.86" fill="#FCFAF4"/>
<path d="M70.2368 56.2657H68.7455C68.6882 55.947 68.5814 55.6666 68.4253 55.4245C68.2692 55.1823 68.078 54.9768 67.8518 54.8079C67.6255 54.639 67.3722 54.5116 67.0918 54.4255C66.8146 54.3395 66.5198 54.2965 66.2076 54.2965C65.6436 54.2965 65.1385 54.4383 64.6924 54.7219C64.2495 55.0055 63.899 55.4213 63.6409 55.9693C63.386 56.5174 63.2585 57.1865 63.2585 57.9768C63.2585 58.7734 63.386 59.4457 63.6409 59.9938C63.899 60.5418 64.2511 60.9561 64.6972 61.2365C65.1433 61.5169 65.6452 61.6571 66.2028 61.6571C66.5119 61.6571 66.805 61.6157 67.0822 61.5328C67.3626 61.4468 67.616 61.3209 67.8422 61.1552C68.0684 60.9895 68.2596 60.7872 68.4157 60.5482C68.5751 60.306 68.685 60.0288 68.7455 59.7166L70.2368 59.7213C70.1571 60.2025 70.0026 60.6454 69.7732 61.0501C69.5469 61.4516 69.2554 61.7989 68.8985 62.092C68.5448 62.382 68.1401 62.6066 67.6845 62.7659C67.2288 62.9253 66.7317 63.0049 66.1932 63.0049C65.3456 63.0049 64.5905 62.8042 63.9277 62.4027C63.2649 61.998 62.7423 61.4197 62.36 60.6677C61.9808 59.9157 61.7912 59.0187 61.7912 57.9768C61.7912 56.9316 61.9824 56.0347 62.3648 55.2859C62.7471 54.5339 63.2697 53.9571 63.9325 53.5556C64.5952 53.151 65.3488 52.9486 66.1932 52.9486C66.7126 52.9486 67.1969 53.0235 67.6462 53.1733C68.0987 53.3198 68.505 53.5365 68.865 53.8233C69.2251 54.1069 69.523 54.4542 69.7588 54.8653C69.9946 55.2731 70.1539 55.7399 70.2368 56.2657ZM74.9817 63.0193C74.2935 63.0193 73.6928 62.8615 73.1798 62.5461C72.6668 62.2306 72.2685 61.7893 71.9849 61.2221C71.7013 60.6549 71.5595 59.9922 71.5595 59.2338C71.5595 58.4723 71.7013 57.8063 71.9849 57.2359C72.2685 56.6656 72.6668 56.2227 73.1798 55.9072C73.6928 55.5918 74.2935 55.434 74.9817 55.434C75.67 55.434 76.2706 55.5918 76.7836 55.9072C77.2967 56.2227 77.695 56.6656 77.9785 57.2359C78.2621 57.8063 78.4039 58.4723 78.4039 59.2338C78.4039 59.9922 78.2621 60.6549 77.9785 61.2221C77.695 61.7893 77.2967 62.2306 76.7836 62.5461C76.2706 62.8615 75.67 63.0193 74.9817 63.0193ZM74.9865 61.8196C75.4326 61.8196 75.8022 61.7017 76.0954 61.4659C76.3885 61.2301 76.6052 60.9162 76.7454 60.5243C76.8888 60.1324 76.9605 59.7006 76.9605 59.229C76.9605 58.7606 76.8888 58.3305 76.7454 57.9385C76.6052 57.5434 76.3885 57.2264 76.0954 56.9874C75.8022 56.7484 75.4326 56.6289 74.9865 56.6289C74.5372 56.6289 74.1644 56.7484 73.8681 56.9874C73.5749 57.2264 73.3567 57.5434 73.2133 57.9385C73.0731 58.3305 73.003 58.7606 73.003 59.229C73.003 59.7006 73.0731 60.1324 73.2133 60.5243C73.3567 60.9162 73.5749 61.2301 73.8681 61.4659C74.1644 61.7017 74.5372 61.8196 74.9865 61.8196ZM83.0915 63.0193C82.4033 63.0193 81.8026 62.8615 81.2896 62.5461C80.7766 62.2306 80.3783 61.7893 80.0947 61.2221C79.8111 60.6549 79.6693 59.9922 79.6693 59.2338C79.6693 58.4723 79.8111 57.8063 80.0947 57.2359C80.3783 56.6656 80.7766 56.2227 81.2896 55.9072C81.8026 55.5918 82.4033 55.434 83.0915 55.434C83.7798 55.434 84.3804 55.5918 84.8934 55.9072C85.4065 56.2227 85.8048 56.6656 86.0883 57.2359C86.3719 57.8063 86.5137 58.4723 86.5137 59.2338C86.5137 59.9922 86.3719 60.6549 86.0883 61.2221C85.8048 61.7893 85.4065 62.2306 84.8934 62.5461C84.3804 62.8615 83.7798 63.0193 83.0915 63.0193ZM83.0963 61.8196C83.5424 61.8196 83.912 61.7017 84.2052 61.4659C84.4983 61.2301 84.715 60.9162 84.8552 60.5243C84.9986 60.1324 85.0703 59.7006 85.0703 59.229C85.0703 58.7606 84.9986 58.3305 84.8552 57.9385C84.715 57.5434 84.4983 57.2264 84.2052 56.9874C83.912 56.7484 83.5424 56.6289 83.0963 56.6289C82.647 56.6289 82.2742 56.7484 81.9779 56.9874C81.6847 57.2264 81.4665 57.5434 81.3231 57.9385C81.1829 58.3305 81.1128 58.7606 81.1128 59.229C81.1128 59.7006 81.1829 60.1324 81.3231 60.5243C81.4665 60.9162 81.6847 61.2301 81.9779 61.4659C82.2742 61.7017 82.647 61.8196 83.0963 61.8196ZM89.4233 60.3809L89.4138 58.6364H89.6623L92.5874 55.5296H94.2985L90.9623 59.0665H90.7377L89.4233 60.3809ZM88.1089 62.8711V53.0825H89.538V62.8711H88.1089ZM92.7451 62.8711L90.1164 59.382L91.101 58.383L94.4993 62.8711H92.7451ZM95.601 62.8711V55.5296H97.0301V62.8711H95.601ZM96.3227 54.3968C96.0741 54.3968 95.8606 54.314 95.6822 54.1483C95.507 53.9794 95.4193 53.7787 95.4193 53.5461C95.4193 53.3103 95.507 53.1095 95.6822 52.9438C95.8606 52.775 96.0741 52.6905 96.3227 52.6905C96.5712 52.6905 96.7831 52.775 96.9584 52.9438C97.1368 53.1095 97.226 53.3103 97.226 53.5461C97.226 53.7787 97.1368 53.9794 96.9584 54.1483C96.7831 54.314 96.5712 54.3968 96.3227 54.3968ZM102.117 63.0193C101.393 63.0193 100.771 62.8647 100.248 62.5556C99.7285 62.2434 99.3271 61.8052 99.0435 61.2412C98.7631 60.6741 98.6229 60.0097 98.6229 59.2482C98.6229 58.4962 98.7631 57.8334 99.0435 57.2598C99.3271 56.6863 99.7222 56.2386 100.229 55.9168C100.739 55.5949 101.334 55.434 102.016 55.434C102.431 55.434 102.832 55.5025 103.221 55.6395C103.61 55.7766 103.958 55.9916 104.268 56.2848C104.577 56.5779 104.82 56.9587 104.999 57.4271C105.177 57.8923 105.267 58.4579 105.267 59.1239V59.6305H99.4306V58.5599H103.866C103.866 58.1839 103.79 57.8509 103.637 57.5609C103.484 57.2678 103.269 57.0368 102.991 56.8679C102.717 56.699 102.396 56.6146 102.026 56.6146C101.624 56.6146 101.274 56.7134 100.974 56.9109C100.678 57.1053 100.449 57.3602 100.286 57.6757C100.127 57.9879 100.047 58.3273 100.047 58.6937V59.5301C100.047 60.0209 100.133 60.4383 100.305 60.7824C100.481 61.1265 100.724 61.3894 101.037 61.571C101.349 61.7495 101.714 61.8387 102.131 61.8387C102.402 61.8387 102.649 61.8005 102.872 61.724C103.095 61.6443 103.288 61.5264 103.45 61.3703C103.613 61.2142 103.737 61.0214 103.823 60.792L105.176 61.0357C105.067 61.434 104.873 61.7829 104.593 62.0825C104.315 62.3788 103.966 62.6098 103.546 62.7755C103.128 62.938 102.652 63.0193 102.117 63.0193ZM112.353 57.322L111.058 57.5514C111.004 57.3857 110.918 57.228 110.8 57.0782C110.685 56.9284 110.529 56.8058 110.332 56.7102C110.134 56.6146 109.887 56.5668 109.591 56.5668C109.186 56.5668 108.848 56.6576 108.578 56.8392C108.307 57.0177 108.171 57.2487 108.171 57.5323C108.171 57.7776 108.262 57.9752 108.444 58.1249C108.625 58.2747 108.919 58.3974 109.323 58.493L110.489 58.7606C111.165 58.9168 111.668 59.1573 112 59.4824C112.331 59.8074 112.497 60.2296 112.497 60.7489C112.497 61.1887 112.369 61.5806 112.115 61.9247C111.863 62.2657 111.511 62.5333 111.058 62.7277C110.609 62.9221 110.088 63.0193 109.495 63.0193C108.673 63.0193 108.002 62.844 107.483 62.4935C106.964 62.1398 106.645 61.638 106.527 60.9879L107.908 60.7776C107.994 61.1377 108.171 61.4101 108.439 61.5949C108.707 61.7766 109.056 61.8674 109.486 61.8674C109.954 61.8674 110.329 61.7702 110.609 61.5758C110.889 61.3783 111.03 61.1377 111.03 60.8541C111.03 60.6247 110.943 60.4319 110.771 60.2758C110.603 60.1196 110.343 60.0017 109.992 59.9221L108.75 59.6496C108.065 59.4935 107.558 59.245 107.23 58.904C106.905 58.5631 106.742 58.1313 106.742 57.6087C106.742 57.1754 106.863 56.7962 107.105 56.4712C107.348 56.1462 107.682 55.8929 108.109 55.7112C108.536 55.5264 109.025 55.434 109.577 55.434C110.37 55.434 110.994 55.6061 111.45 55.9502C111.906 56.2912 112.207 56.7484 112.353 57.322ZM117.745 62.8711V53.0825H121.234C121.996 53.0825 122.626 53.2211 123.127 53.4983C123.627 53.7755 124.001 54.1547 124.25 54.6358C124.498 55.1138 124.623 55.6523 124.623 56.2513C124.623 56.8536 124.497 57.3953 124.245 57.8764C123.997 58.3544 123.621 58.7335 123.117 59.014C122.617 59.2912 121.988 59.4298 121.229 59.4298H118.83V58.1775H121.095C121.577 58.1775 121.967 58.0947 122.266 57.929C122.566 57.7601 122.786 57.5307 122.926 57.2407C123.066 56.9508 123.136 56.621 123.136 56.2513C123.136 55.8817 123.066 55.5535 122.926 55.2667C122.786 54.98 122.564 54.7553 122.262 54.5928C121.962 54.4303 121.567 54.3491 121.076 54.3491H119.222V62.8711H117.745ZM129.24 63.0193C128.552 63.0193 127.951 62.8615 127.438 62.5461C126.925 62.2306 126.527 61.7893 126.243 61.2221C125.959 60.6549 125.818 59.9922 125.818 59.2338C125.818 58.4723 125.959 57.8063 126.243 57.2359C126.527 56.6656 126.925 56.2227 127.438 55.9072C127.951 55.5918 128.552 55.434 129.24 55.434C129.928 55.434 130.529 55.5918 131.042 55.9072C131.555 56.2227 131.953 56.6656 132.237 57.2359C132.52 57.8063 132.662 58.4723 132.662 59.2338C132.662 59.9922 132.52 60.6549 132.237 61.2221C131.953 61.7893 131.555 62.2306 131.042 62.5461C130.529 62.8615 129.928 63.0193 129.24 63.0193ZM129.245 61.8196C129.691 61.8196 130.06 61.7017 130.353 61.4659C130.647 61.2301 130.863 60.9162 131.004 60.5243C131.147 60.1324 131.219 59.7006 131.219 59.229C131.219 58.7606 131.147 58.3305 131.004 57.9385C130.863 57.5434 130.647 57.2264 130.353 56.9874C130.06 56.7484 129.691 56.6289 129.245 56.6289C128.795 56.6289 128.423 56.7484 128.126 56.9874C127.833 57.2264 127.615 57.5434 127.471 57.9385C127.331 58.3305 127.261 58.7606 127.261 59.229C127.261 59.7006 127.331 60.1324 127.471 60.5243C127.615 60.9162 127.833 61.2301 128.126 61.4659C128.423 61.7017 128.795 61.8196 129.245 61.8196ZM135.686 53.0825V62.8711H134.257V53.0825H135.686ZM137.609 62.8711V55.5296H139.038V62.8711H137.609ZM138.331 54.3968C138.082 54.3968 137.869 54.314 137.69 54.1483C137.515 53.9794 137.427 53.7787 137.427 53.5461C137.427 53.3103 137.515 53.1095 137.69 52.9438C137.869 52.775 138.082 52.6905 138.331 52.6905C138.579 52.6905 138.791 52.775 138.966 52.9438C139.145 53.1095 139.234 53.3103 139.234 53.5461C139.234 53.7787 139.145 53.9794 138.966 54.1483C138.791 54.314 138.579 54.3968 138.331 54.3968ZM144.053 63.0193C143.342 63.0193 142.731 62.8583 142.218 62.5365C141.708 62.2115 141.316 61.7638 141.042 61.1935C140.768 60.6231 140.631 59.9699 140.631 59.2338C140.631 58.4882 140.771 57.8302 141.051 57.2598C141.332 56.6863 141.727 56.2386 142.237 55.9168C142.747 55.5949 143.347 55.434 144.039 55.434C144.596 55.434 145.093 55.5376 145.53 55.7447C145.966 55.9486 146.319 56.2354 146.586 56.605C146.857 56.9747 147.018 57.4064 147.069 57.9003H145.678C145.602 57.5562 145.426 57.2598 145.152 57.0113C144.881 56.7628 144.518 56.6385 144.063 56.6385C143.664 56.6385 143.315 56.7436 143.016 56.9539C142.72 57.1611 142.489 57.4574 142.323 57.8429C142.157 58.2253 142.074 58.6778 142.074 59.2004C142.074 59.7357 142.156 60.1977 142.318 60.5864C142.481 60.9752 142.71 61.2763 143.006 61.4898C143.306 61.7033 143.658 61.81 144.063 61.81C144.333 61.81 144.579 61.7606 144.799 61.6619C145.022 61.5599 145.208 61.4149 145.358 61.2269C145.511 61.0389 145.618 60.8127 145.678 60.5482H147.069C147.018 61.023 146.863 61.4468 146.605 61.8196C146.347 62.1924 146.002 62.4855 145.568 62.699C145.138 62.9125 144.633 63.0193 144.053 63.0193ZM149.501 65.6241C149.287 65.6241 149.093 65.6066 148.917 65.5716C148.742 65.5397 148.612 65.5047 148.526 65.4664L148.87 64.2954C149.131 64.3655 149.364 64.3958 149.568 64.3862C149.771 64.3767 149.951 64.3002 150.108 64.1568C150.267 64.0134 150.407 63.7792 150.528 63.4542L150.705 62.9667L148.019 55.5296H149.548L151.408 61.2269H151.484L153.343 55.5296H154.878L151.852 63.8509C151.712 64.2333 151.534 64.5567 151.317 64.8212C151.1 65.0888 150.842 65.2896 150.543 65.4234C150.243 65.5572 149.896 65.6241 149.501 65.6241Z" fill="#333333"/>
<g clip-path="url(#clip0_7478_2204)">
<rect x="175.125" y="67.8008" width="89.25" height="21.86" fill="#FCFAF4"/>
<path d="M178.624 54.4241V53.1528H186.2V54.4241H183.145V62.9414H181.673V54.4241H178.624ZM189.858 63.0896C189.135 63.0896 188.512 62.935 187.99 62.626C187.47 62.3137 187.069 61.8756 186.785 61.3116C186.505 60.7444 186.364 60.08 186.364 59.3185C186.364 58.5665 186.505 57.9037 186.785 57.3301C187.069 56.7566 187.464 56.3089 187.97 55.9871C188.48 55.6652 189.076 55.5043 189.758 55.5043C190.172 55.5043 190.574 55.5728 190.962 55.7099C191.351 55.8469 191.7 56.062 192.009 56.3551C192.318 56.6483 192.562 57.029 192.74 57.4974C192.919 57.9626 193.008 58.5282 193.008 59.1942V59.7008H187.172V58.6302H191.608C191.608 58.2542 191.531 57.9212 191.378 57.6313C191.225 57.3381 191.01 57.1071 190.733 56.9382C190.459 56.7693 190.137 56.6849 189.768 56.6849C189.366 56.6849 189.016 56.7837 188.716 56.9812C188.42 57.1756 188.19 57.4305 188.028 57.746C187.868 58.0582 187.789 58.3976 187.789 58.764V59.6005C187.789 60.0912 187.875 60.5086 188.047 60.8527C188.222 61.1968 188.466 61.4597 188.778 61.6414C189.09 61.8198 189.455 61.909 189.873 61.909C190.144 61.909 190.391 61.8708 190.614 61.7943C190.837 61.7146 191.029 61.5967 191.192 61.4406C191.354 61.2845 191.479 61.0917 191.565 60.8623L192.917 61.106C192.809 61.5043 192.615 61.8532 192.334 62.1528C192.057 62.4491 191.708 62.6801 191.287 62.8458C190.87 63.0083 190.394 63.0896 189.858 63.0896ZM194.594 62.9414V55.5999H195.975V56.7662H196.052C196.185 56.371 196.421 56.0604 196.759 55.8341C197.1 55.6047 197.485 55.49 197.916 55.49C198.005 55.49 198.11 55.4932 198.231 55.4996C198.355 55.5059 198.453 55.5139 198.523 55.5235V56.8904C198.465 56.8745 198.363 56.857 198.217 56.8378C198.07 56.8155 197.924 56.8044 197.777 56.8044C197.439 56.8044 197.138 56.8761 196.874 57.0195C196.612 57.1597 196.405 57.3556 196.252 57.6074C196.099 57.8559 196.023 58.1395 196.023 58.4581V62.9414H194.594ZM199.759 62.9414V55.5999H201.131V56.7948H201.222C201.375 56.3902 201.625 56.0747 201.972 55.8485C202.32 55.619 202.735 55.5043 203.22 55.5043C203.71 55.5043 204.122 55.619 204.453 55.8485C204.787 56.0779 205.034 56.3933 205.194 56.7948H205.27C205.445 56.4029 205.724 56.0906 206.107 55.858C206.489 55.6222 206.945 55.5043 207.474 55.5043C208.14 55.5043 208.683 55.713 209.103 56.1305C209.527 56.5479 209.739 57.1772 209.739 58.0184V62.9414H208.31V58.1522C208.31 57.6552 208.175 57.2951 207.904 57.072C207.633 56.849 207.31 56.7375 206.934 56.7375C206.468 56.7375 206.107 56.8809 205.849 57.1676C205.59 57.4512 205.461 57.8161 205.461 58.2622V62.9414H204.037V58.0614C204.037 57.6631 203.913 57.3429 203.664 57.1007C203.416 56.8586 203.092 56.7375 202.694 56.7375C202.423 56.7375 202.173 56.8092 201.944 56.9526C201.717 57.0928 201.534 57.2887 201.394 57.5404C201.257 57.7922 201.188 58.0837 201.188 58.4151V62.9414H199.759ZM217.156 57.3923L215.861 57.6217C215.806 57.456 215.72 57.2983 215.603 57.1485C215.488 56.9988 215.332 56.8761 215.134 56.7805C214.937 56.6849 214.69 56.6371 214.393 56.6371C213.989 56.6371 213.651 56.7279 213.38 56.9095C213.109 57.088 212.974 57.319 212.974 57.6026C212.974 57.8479 213.065 58.0455 213.246 58.1953C213.428 58.345 213.721 58.4677 214.126 58.5633L215.292 58.8309C215.967 58.9871 216.471 59.2277 216.802 59.5527C217.134 59.8777 217.299 60.2999 217.299 60.8193C217.299 61.259 217.172 61.6509 216.917 61.995C216.665 62.336 216.313 62.6036 215.861 62.798C215.411 62.9924 214.89 63.0896 214.298 63.0896C213.476 63.0896 212.805 62.9143 212.286 62.5638C211.766 62.2101 211.447 61.7083 211.33 61.0582L212.711 60.8479C212.797 61.208 212.974 61.4804 213.241 61.6653C213.509 61.8469 213.858 61.9377 214.288 61.9377C214.757 61.9377 215.131 61.8405 215.411 61.6461C215.692 61.4486 215.832 61.208 215.832 60.9244C215.832 60.695 215.746 60.5022 215.574 60.3461C215.405 60.1899 215.145 60.072 214.795 59.9924L213.552 59.72C212.867 59.5638 212.36 59.3153 212.032 58.9743C211.707 58.6334 211.545 58.2016 211.545 57.6791C211.545 57.2457 211.666 56.8665 211.908 56.5415C212.15 56.2165 212.485 55.9632 212.912 55.7816C213.339 55.5967 213.828 55.5043 214.379 55.5043C215.172 55.5043 215.797 55.6764 216.253 56.0205C216.708 56.3615 217.009 56.8187 217.156 57.3923ZM225.525 63.0896C224.837 63.0896 224.236 62.9318 223.723 62.6164C223.21 62.3009 222.812 61.8596 222.528 61.2924C222.245 60.7253 222.103 60.0625 222.103 59.3041C222.103 58.5426 222.245 57.8766 222.528 57.3062C222.812 56.7359 223.21 56.293 223.723 55.9775C224.236 55.6621 224.837 55.5043 225.525 55.5043C226.213 55.5043 226.814 55.6621 227.327 55.9775C227.84 56.293 228.238 56.7359 228.522 57.3062C228.805 57.8766 228.947 58.5426 228.947 59.3041C228.947 60.0625 228.805 60.7253 228.522 61.2924C228.238 61.8596 227.84 62.3009 227.327 62.6164C226.814 62.9318 226.213 63.0896 225.525 63.0896ZM225.53 61.8899C225.976 61.8899 226.346 61.772 226.639 61.5362C226.932 61.3004 227.148 60.9865 227.289 60.5946C227.432 60.2027 227.504 59.7709 227.504 59.2993C227.504 58.8309 227.432 58.4008 227.289 58.0089C227.148 57.6137 226.932 57.2967 226.639 57.0577C226.346 56.8187 225.976 56.6992 225.53 56.6992C225.081 56.6992 224.708 56.8187 224.411 57.0577C224.118 57.2967 223.9 57.6137 223.757 58.0089C223.616 58.4008 223.546 58.8309 223.546 59.2993C223.546 59.7709 223.616 60.2027 223.757 60.5946C223.9 60.9865 224.118 61.3004 224.411 61.5362C224.708 61.772 225.081 61.8899 225.53 61.8899ZM234.036 55.5999V56.747H229.888V55.5999H234.036ZM231.025 62.9414V54.7492C231.025 54.2903 231.126 53.9095 231.326 53.6068C231.527 53.3009 231.793 53.0731 232.124 52.9233C232.456 52.7704 232.816 52.6939 233.205 52.6939C233.491 52.6939 233.737 52.7178 233.941 52.7656C234.145 52.8102 234.296 52.8517 234.395 52.8899L234.06 54.0466C233.993 54.0274 233.907 54.0051 233.802 53.9796C233.697 53.951 233.569 53.9366 233.42 53.9366C233.072 53.9366 232.824 54.0227 232.674 54.1947C232.528 54.3668 232.454 54.6153 232.454 54.9403V62.9414H231.025ZM243.723 59.8968V55.5999H245.157V62.9414H243.752V61.67H243.676C243.507 62.062 243.236 62.3886 242.863 62.6499C242.493 62.9079 242.033 63.037 241.482 63.037C241.01 63.037 240.593 62.9334 240.229 62.7263C239.869 62.516 239.586 62.2053 239.379 61.7943C239.175 61.3833 239.073 60.875 239.073 60.2696V55.5999H240.502V60.0975C240.502 60.5978 240.641 60.9961 240.918 61.2924C241.195 61.5888 241.555 61.7369 241.998 61.7369C242.266 61.7369 242.532 61.67 242.796 61.5362C243.064 61.4024 243.285 61.2 243.46 60.9292C243.639 60.6583 243.727 60.3142 243.723 59.8968ZM252.579 57.3923L251.284 57.6217C251.229 57.456 251.143 57.2983 251.025 57.1485C250.911 56.9988 250.755 56.8761 250.557 56.7805C250.359 56.6849 250.113 56.6371 249.816 56.6371C249.412 56.6371 249.074 56.7279 248.803 56.9095C248.532 57.088 248.397 57.319 248.397 57.6026C248.397 57.8479 248.487 58.0455 248.669 58.1953C248.851 58.345 249.144 58.4677 249.549 58.5633L250.715 58.8309C251.39 58.9871 251.894 59.2277 252.225 59.5527C252.556 59.8777 252.722 60.2999 252.722 60.8193C252.722 61.259 252.595 61.6509 252.34 61.995C252.088 62.336 251.736 62.6036 251.284 62.798C250.834 62.9924 250.313 63.0896 249.721 63.0896C248.898 63.0896 248.228 62.9143 247.708 62.5638C247.189 62.2101 246.87 61.7083 246.752 61.0582L248.134 60.8479C248.22 61.208 248.397 61.4804 248.664 61.6653C248.932 61.8469 249.281 61.9377 249.711 61.9377C250.179 61.9377 250.554 61.8405 250.834 61.6461C251.115 61.4486 251.255 61.208 251.255 60.9244C251.255 60.695 251.169 60.5022 250.997 60.3461C250.828 60.1899 250.568 60.072 250.218 59.9924L248.975 59.72C248.29 59.5638 247.783 59.3153 247.455 58.9743C247.13 58.6334 246.968 58.2016 246.968 57.6791C246.968 57.2457 247.089 56.8665 247.331 56.5415C247.573 56.2165 247.908 55.9632 248.334 55.7816C248.761 55.5967 249.251 55.5043 249.802 55.5043C250.595 55.5043 251.22 55.6764 251.675 56.0205C252.131 56.3615 252.432 56.8187 252.579 57.3923ZM257.458 63.0896C256.734 63.0896 256.111 62.935 255.589 62.626C255.069 62.3137 254.668 61.8756 254.384 61.3116C254.104 60.7444 253.964 60.08 253.964 59.3185C253.964 58.5665 254.104 57.9037 254.384 57.3301C254.668 56.7566 255.063 56.3089 255.57 55.9871C256.079 55.6652 256.675 55.5043 257.357 55.5043C257.771 55.5043 258.173 55.5728 258.562 55.7099C258.95 55.8469 259.299 56.062 259.608 56.3551C259.917 56.6483 260.161 57.029 260.34 57.4974C260.518 57.9626 260.607 58.5282 260.607 59.1942V59.7008H254.771V58.6302H259.207C259.207 58.2542 259.13 57.9212 258.977 57.6313C258.825 57.3381 258.609 57.1071 258.332 56.9382C258.058 56.7693 257.736 56.6849 257.367 56.6849C256.965 56.6849 256.615 56.7837 256.315 56.9812C256.019 57.1756 255.789 57.4305 255.627 57.746C255.468 58.0582 255.388 58.3976 255.388 58.764V59.6005C255.388 60.0912 255.474 60.5086 255.646 60.8527C255.821 61.1968 256.065 61.4597 256.377 61.6414C256.69 61.8198 257.055 61.909 257.472 61.909C257.743 61.909 257.99 61.8708 258.213 61.7943C258.436 61.7146 258.629 61.5967 258.791 61.4406C258.954 61.2845 259.078 61.0917 259.164 60.8623L260.517 61.106C260.408 61.5043 260.214 61.8532 259.933 62.1528C259.656 62.4491 259.307 62.6801 258.887 62.8458C258.469 63.0083 257.993 63.0896 257.458 63.0896Z" fill="#333333"/>
</g>
<g clip-path="url(#clip1_7478_2204)">
<rect x="284.375" y="67.8008" width="95.66" height="21.86" fill="#FCFAF4"/>
<path d="M288.357 62.9414V53.1528H291.846C292.607 53.1528 293.238 53.2914 293.739 53.5686C294.239 53.8458 294.613 54.225 294.862 54.7061C295.11 55.1841 295.235 55.7226 295.235 56.3216C295.235 56.9239 295.109 57.4656 294.857 57.9467C294.608 58.4247 294.232 58.8039 293.729 59.0843C293.229 59.3615 292.599 59.5001 291.841 59.5001H289.442V58.2478H291.707C292.188 58.2478 292.579 58.165 292.878 57.9993C293.178 57.8304 293.398 57.601 293.538 57.311C293.678 57.0211 293.748 56.6913 293.748 56.3216C293.748 55.952 293.678 55.6238 293.538 55.3371C293.398 55.0503 293.176 54.8256 292.873 54.6631C292.574 54.5006 292.179 54.4194 291.688 54.4194H289.834V62.9414H288.357ZM296.851 62.9414V55.5999H298.233V56.7662H298.309C298.443 56.371 298.679 56.0604 299.016 55.8341C299.357 55.6047 299.743 55.49 300.173 55.49C300.262 55.49 300.367 55.4932 300.489 55.4996C300.613 55.5059 300.71 55.5139 300.78 55.5235V56.8904C300.723 56.8745 300.621 56.857 300.474 56.8378C300.328 56.8155 300.181 56.8044 300.034 56.8044C299.697 56.8044 299.396 56.8761 299.131 57.0195C298.87 57.1597 298.663 57.3556 298.51 57.6074C298.357 57.8559 298.28 58.1395 298.28 58.4581V62.9414H296.851ZM302.017 62.9414V55.5999H303.446V62.9414H302.017ZM302.739 54.4672C302.49 54.4672 302.276 54.3843 302.098 54.2186C301.923 54.0497 301.835 53.849 301.835 53.6164C301.835 53.3806 301.923 53.1799 302.098 53.0142C302.276 52.8453 302.49 52.7608 302.739 52.7608C302.987 52.7608 303.199 52.8453 303.374 53.0142C303.553 53.1799 303.642 53.3806 303.642 53.6164C303.642 53.849 303.553 54.0497 303.374 54.2186C303.199 54.3843 302.987 54.4672 302.739 54.4672ZM311.649 55.5999L308.987 62.9414H307.457L304.79 55.5999H306.324L308.184 61.2494H308.26L310.115 55.5999H311.649ZM314.918 63.1039C314.453 63.1039 314.032 63.0179 313.656 62.8458C313.28 62.6706 312.982 62.4172 312.763 62.0859C312.546 61.7545 312.438 61.3482 312.438 60.8671C312.438 60.4528 312.517 60.1119 312.677 59.8442C312.836 59.5766 313.051 59.3647 313.322 59.2085C313.593 59.0524 313.895 58.9345 314.23 58.8548C314.564 58.7752 314.905 58.7146 315.253 58.6732C315.692 58.6222 316.049 58.5808 316.323 58.5489C316.597 58.5139 316.797 58.4581 316.921 58.3817C317.045 58.3052 317.107 58.1809 317.107 58.0089V57.9754C317.107 57.558 316.989 57.2346 316.754 57.0051C316.521 56.7757 316.174 56.661 315.712 56.661C315.23 56.661 314.851 56.7677 314.574 56.9812C314.3 57.1915 314.11 57.4257 314.005 57.6838L312.662 57.3779C312.821 56.9318 313.054 56.5718 313.36 56.2978C313.669 56.0205 314.024 55.8198 314.426 55.6955C314.827 55.5681 315.25 55.5043 315.692 55.5043C315.986 55.5043 316.296 55.5394 316.624 55.6095C316.956 55.6764 317.265 55.8007 317.552 55.9823C317.842 56.1639 318.079 56.4236 318.264 56.7614C318.449 57.0959 318.541 57.5309 318.541 58.0662V62.9414H317.145V61.9377H317.088C316.996 62.1225 316.857 62.3041 316.672 62.4826C316.487 62.661 316.25 62.8092 315.96 62.9271C315.67 63.045 315.323 63.1039 314.918 63.1039ZM315.229 61.9568C315.624 61.9568 315.962 61.8787 316.242 61.7226C316.526 61.5665 316.741 61.3625 316.887 61.1108C317.037 60.8559 317.112 60.5835 317.112 60.2935V59.3471C317.061 59.3981 316.962 59.4459 316.816 59.4905C316.672 59.532 316.508 59.5686 316.323 59.6005C316.139 59.6291 315.958 59.6562 315.783 59.6817C315.608 59.704 315.461 59.7231 315.344 59.7391C315.066 59.7741 314.813 59.8331 314.584 59.9159C314.357 59.9988 314.176 60.1183 314.039 60.2744C313.905 60.4273 313.838 60.6313 313.838 60.8862C313.838 61.2399 313.969 61.5075 314.23 61.6891C314.491 61.8676 314.824 61.9568 315.229 61.9568ZM323.537 63.0896C322.826 63.0896 322.215 62.9287 321.702 62.6068C321.192 62.2818 320.8 61.8341 320.526 61.2638C320.252 60.6934 320.115 60.0402 320.115 59.3041C320.115 58.5585 320.255 57.9005 320.535 57.3301C320.816 56.7566 321.211 56.3089 321.721 55.9871C322.231 55.6652 322.831 55.5043 323.523 55.5043C324.08 55.5043 324.577 55.6079 325.014 55.815C325.45 56.0189 325.802 56.3057 326.07 56.6753C326.341 57.045 326.502 57.4767 326.553 57.9706H325.162C325.086 57.6265 324.91 57.3301 324.636 57.0816C324.365 56.8331 324.002 56.7088 323.547 56.7088C323.148 56.7088 322.799 56.8139 322.5 57.0243C322.203 57.2314 321.972 57.5277 321.807 57.9133C321.641 58.2956 321.558 58.7481 321.558 59.2707C321.558 59.806 321.639 60.268 321.802 60.6568C321.964 61.0455 322.194 61.3466 322.49 61.5601C322.79 61.7736 323.142 61.8803 323.547 61.8803C323.817 61.8803 324.063 61.8309 324.283 61.7322C324.506 61.6302 324.692 61.4852 324.842 61.2972C324.995 61.1092 325.101 60.883 325.162 60.6185H326.553C326.502 61.0933 326.347 61.5171 326.089 61.8899C325.831 62.2627 325.485 62.5559 325.052 62.7693C324.622 62.9828 324.117 63.0896 323.537 63.0896ZM328.985 65.6945C328.771 65.6945 328.577 65.6769 328.401 65.6419C328.226 65.61 328.096 65.575 328.009 65.5367L328.354 64.3657C328.615 64.4358 328.848 64.4661 329.051 64.4565C329.255 64.447 329.435 64.3705 329.592 64.2271C329.751 64.0837 329.891 63.8495 330.012 63.5245L330.189 63.037L327.503 55.5999H329.032L330.892 61.2972H330.968L332.827 55.5999H334.362L331.336 63.9212C331.196 64.3036 331.017 64.627 330.801 64.8915C330.584 65.1591 330.326 65.3599 330.026 65.4937C329.727 65.6275 329.38 65.6945 328.985 65.6945ZM339.381 62.9414V53.1528H342.87C343.632 53.1528 344.263 53.2914 344.763 53.5686C345.263 53.8458 345.638 54.225 345.886 54.7061C346.135 55.1841 346.259 55.7226 346.259 56.3216C346.259 56.9239 346.133 57.4656 345.882 57.9467C345.633 58.4247 345.257 58.8039 344.754 59.0843C344.253 59.3615 343.624 59.5001 342.866 59.5001H340.466V58.2478H342.732C343.213 58.2478 343.603 58.165 343.903 57.9993C344.202 57.8304 344.422 57.601 344.562 57.311C344.703 57.0211 344.773 56.6913 344.773 56.3216C344.773 55.952 344.703 55.6238 344.562 55.3371C344.422 55.0503 344.201 54.8256 343.898 54.6631C343.599 54.5006 343.203 54.4194 342.713 54.4194H340.858V62.9414H339.381ZM350.876 63.0896C350.188 63.0896 349.587 62.9318 349.074 62.6164C348.561 62.3009 348.163 61.8596 347.88 61.2924C347.596 60.7253 347.454 60.0625 347.454 59.3041C347.454 58.5426 347.596 57.8766 347.88 57.3062C348.163 56.7359 348.561 56.293 349.074 55.9775C349.587 55.6621 350.188 55.5043 350.876 55.5043C351.565 55.5043 352.165 55.6621 352.678 55.9775C353.191 56.293 353.59 56.7359 353.873 57.3062C354.157 57.8766 354.299 58.5426 354.299 59.3041C354.299 60.0625 354.157 60.7253 353.873 61.2924C353.59 61.8596 353.191 62.3009 352.678 62.6164C352.165 62.9318 351.565 63.0896 350.876 63.0896ZM350.881 61.8899C351.327 61.8899 351.697 61.772 351.99 61.5362C352.283 61.3004 352.5 60.9865 352.64 60.5946C352.783 60.2027 352.855 59.7709 352.855 59.2993C352.855 58.8309 352.783 58.4008 352.64 58.0089C352.5 57.6137 352.283 57.2967 351.99 57.0577C351.697 56.8187 351.327 56.6992 350.881 56.6992C350.432 56.6992 350.059 56.8187 349.763 57.0577C349.47 57.2967 349.251 57.6137 349.108 58.0089C348.968 58.4008 348.898 58.8309 348.898 59.2993C348.898 59.7709 348.968 60.2027 349.108 60.5946C349.251 60.9865 349.47 61.3004 349.763 61.5362C350.059 61.772 350.432 61.8899 350.881 61.8899ZM357.323 53.1528V62.9414H355.894V53.1528H357.323ZM359.245 62.9414V55.5999H360.675V62.9414H359.245ZM359.967 54.4672C359.719 54.4672 359.505 54.3843 359.327 54.2186C359.151 54.0497 359.064 53.849 359.064 53.6164C359.064 53.3806 359.151 53.1799 359.327 53.0142C359.505 52.8453 359.719 52.7608 359.967 52.7608C360.216 52.7608 360.428 52.8453 360.603 53.0142C360.781 53.1799 360.87 53.3806 360.87 53.6164C360.87 53.849 360.781 54.0497 360.603 54.2186C360.428 54.3843 360.216 54.4672 359.967 54.4672ZM365.69 63.0896C364.979 63.0896 364.367 62.9287 363.854 62.6068C363.344 62.2818 362.952 61.8341 362.678 61.2638C362.404 60.6934 362.267 60.0402 362.267 59.3041C362.267 58.5585 362.408 57.9005 362.688 57.3301C362.968 56.7566 363.363 56.3089 363.873 55.9871C364.383 55.6652 364.984 55.5043 365.675 55.5043C366.233 55.5043 366.73 55.6079 367.166 55.815C367.603 56.0189 367.955 56.3057 368.223 56.6753C368.494 57.045 368.654 57.4767 368.705 57.9706H367.315C367.238 57.6265 367.063 57.3301 366.789 57.0816C366.518 56.8331 366.155 56.7088 365.699 56.7088C365.301 56.7088 364.952 56.8139 364.652 57.0243C364.356 57.2314 364.125 57.5277 363.959 57.9133C363.794 58.2956 363.711 58.7481 363.711 59.2707C363.711 59.806 363.792 60.268 363.955 60.6568C364.117 61.0455 364.346 61.3466 364.643 61.5601C364.942 61.7736 365.294 61.8803 365.699 61.8803C365.97 61.8803 366.215 61.8309 366.435 61.7322C366.658 61.6302 366.845 61.4852 366.994 61.2972C367.147 61.1092 367.254 60.883 367.315 60.6185H368.705C368.654 61.0933 368.5 61.5171 368.242 61.8899C367.984 62.2627 367.638 62.5559 367.205 62.7693C366.774 62.9828 366.269 63.0896 365.69 63.0896ZM371.137 65.6945C370.924 65.6945 370.729 65.6769 370.554 65.6419C370.379 65.61 370.248 65.575 370.162 65.5367L370.506 64.3657C370.767 64.4358 371 64.4661 371.204 64.4565C371.408 64.447 371.588 64.3705 371.744 64.2271C371.903 64.0837 372.044 63.8495 372.165 63.5245L372.342 63.037L369.655 55.5999H371.185L373.044 61.2972H373.121L374.98 55.5999H376.514L373.489 63.9212C373.348 64.3036 373.17 64.627 372.953 64.8915C372.737 65.1591 372.479 65.3599 372.179 65.4937C371.88 65.6275 371.532 65.6945 371.137 65.6945Z" fill="#333333"/>
</g>
<defs>
<clipPath id="clip0_7478_2204">
<rect width="89.25" height="21.86" fill="white" transform="translate(175.125 47.9414)"/>
</clipPath>
<clipPath id="clip1_7478_2204">
<rect width="95.66" height="21.86" fill="white" transform="translate(284.375 47.9414)"/>
</clipPath>
</defs>
</svg>
