<svg width="32" height="33" viewBox="0 0 32 33" fill="none" xmlns="http://www.w3.org/2000/svg">
<path d="M3.6665 11.0829C3.6665 7.60292 6.72917 4.65625 10.6665 4.65625C13.5758 4.65625 16.0318 6.28025 17.0958 8.53625C17.209 8.77618 17.4128 8.96134 17.6625 9.05098C17.9122 9.14062 18.1872 9.12741 18.4272 9.01425C18.6671 8.90109 18.8523 8.69725 18.9419 8.44758C19.0315 8.19791 19.0183 7.92285 18.9052 7.68292C17.4958 4.69625 14.3158 2.65625 10.6665 2.65625C5.76784 2.65625 1.6665 6.36025 1.6665 11.0829C1.6665 12.8296 2.2345 14.4482 3.1985 15.7869L2.24917 18.5763C1.76917 19.9883 3.3385 21.2096 4.58917 20.4029L7.06117 18.8056C7.50206 18.986 7.95984 19.1331 8.4345 19.2469C8.69142 19.3055 8.9611 19.2604 9.18491 19.1213C9.40872 18.9822 9.56857 18.7603 9.62971 18.504C9.69085 18.2477 9.64834 17.9776 9.51141 17.7524C9.37449 17.5272 9.15423 17.3652 8.8985 17.3016C8.38439 17.1789 7.88504 17.001 7.40917 16.7709L6.9025 16.5269L4.53984 18.0536L5.44384 15.3936L5.08784 14.9643C4.17433 13.8767 3.67134 12.5032 3.6665 11.0829ZM16.2665 20.4829C15.8265 19.1629 16.3465 17.5363 17.7865 17.0829C18.5332 16.8562 19.4665 17.0429 19.9998 17.7496C20.5065 17.0162 21.4665 16.8562 22.2132 17.0829C23.6532 17.5229 24.1732 19.1629 23.7332 20.4829C23.0532 22.5763 20.6665 23.6562 19.9998 23.6562C19.3332 23.6562 16.9732 22.5896 16.2665 20.4829Z" fill="url(#paint0_linear_4285_3343)"/>
<path d="M19.9998 10.6536C14.3638 10.6536 9.6665 14.9136 9.6665 20.3203C9.6665 25.727 14.3638 29.987 19.9998 29.987C21.4492 29.9892 22.8846 29.7032 24.2225 29.1456L27.1798 31.0563C28.5065 31.9136 30.1718 30.6163 29.6625 29.1203L28.5278 25.7816C29.6979 24.2009 30.3306 22.2869 30.3332 20.3203C30.3332 14.9136 25.6358 10.6536 19.9998 10.6536ZM11.6665 20.3203C11.6665 16.155 15.3265 12.6536 19.9998 12.6536C24.6732 12.6536 28.3332 16.155 28.3332 20.3203C28.328 22.0168 27.7273 23.6576 26.6358 24.9563L26.2798 25.387L27.4598 28.8563L24.3798 26.8643L23.8732 27.1096C22.6649 27.6908 21.3406 27.9907 19.9998 27.987C15.3265 27.987 11.6665 24.4856 11.6665 20.3203ZM7.33317 8.32031C7.15636 8.32031 6.98679 8.39055 6.86177 8.51557C6.73674 8.6406 6.6665 8.81017 6.6665 8.98698C6.6665 9.16379 6.73674 9.33336 6.86177 9.45838C6.98679 9.58341 7.15636 9.65365 7.33317 9.65365H13.9998C14.1766 9.65365 14.3462 9.58341 14.4712 9.45838C14.5963 9.33336 14.6665 9.16379 14.6665 8.98698C14.6665 8.81017 14.5963 8.6406 14.4712 8.51557C14.3462 8.39055 14.1766 8.32031 13.9998 8.32031H7.33317ZM6.6665 14.3203C6.6665 14.1435 6.73674 13.9739 6.86177 13.8489C6.98679 13.7239 7.15636 13.6536 7.33317 13.6536H8.6665C8.84331 13.6536 9.01288 13.7239 9.13791 13.8489C9.26293 13.9739 9.33317 14.1435 9.33317 14.3203C9.33317 14.4971 9.26293 14.6667 9.13791 14.7917C9.01288 14.9167 8.84331 14.987 8.6665 14.987H7.33317C7.15636 14.987 6.98679 14.9167 6.86177 14.7917C6.73674 14.6667 6.6665 14.4971 6.6665 14.3203ZM7.33317 10.987C7.15636 10.987 6.98679 11.0572 6.86177 11.1822C6.73674 11.3073 6.6665 11.4768 6.6665 11.6536C6.6665 11.8305 6.73674 12 6.86177 12.1251C6.98679 12.2501 7.15636 12.3203 7.33317 12.3203H11.3332C11.51 12.3203 11.6796 12.2501 11.8046 12.1251C11.9296 12 11.9998 11.8305 11.9998 11.6536C11.9998 11.4768 11.9296 11.3073 11.8046 11.1822C11.6796 11.0572 11.51 10.987 11.3332 10.987H7.33317Z" fill="url(#paint1_linear_4285_3343)"/>
<defs>
<linearGradient id="paint0_linear_4285_3343" x1="-9.45152" y1="15.7068" x2="13.0243" y2="37.7103" gradientUnits="userSpaceOnUse">
<stop stop-color="#43CEA2"/>
<stop offset="0.931667" stop-color="#185A9D"/>
</linearGradient>
<linearGradient id="paint1_linear_4285_3343" x1="-5.17623" y1="22.6199" x2="19.426" y2="46.0343" gradientUnits="userSpaceOnUse">
<stop stop-color="#43CEA2"/>
<stop offset="0.931667" stop-color="#185A9D"/>
</linearGradient>
</defs>
</svg>
