<svg width="32" height="33" viewBox="0 0 32 33" fill="none" xmlns="http://www.w3.org/2000/svg">
<path d="M11.5 6.98828C10.5729 6.99197 9.68478 7.3619 9.0292 8.01748C8.37362 8.67306 8.00369 9.56116 8 10.4883C8 12.4103 9.578 13.9883 11.5 13.9883C13.422 13.9883 15 12.4103 15 10.4883C15 8.56628 13.422 6.98828 11.5 6.98828ZM20.5 6.98828C19.5729 6.99197 18.6848 7.3619 18.0292 8.01748C17.3736 8.67306 17.0037 9.56116 17 10.4883C17 12.4103 18.578 13.9883 20.5 13.9883C22.422 13.9883 24 12.4103 24 10.4883C24 8.56628 22.422 6.98828 20.5 6.98828ZM11.5 8.98828C12.34 8.98828 13 9.64828 13 10.4883C13 11.3283 12.34 11.9883 11.5 11.9883C10.66 11.9883 10 11.3283 10 10.4883C10 9.64828 10.66 8.98828 11.5 8.98828ZM20.5 8.98828C21.34 8.98828 22 9.64828 22 10.4883C22 11.3283 21.34 11.9883 20.5 11.9883C19.66 11.9883 19 11.3283 19 10.4883C19 9.64828 19.66 8.98828 20.5 8.98828ZM7 12.9883C4.8 12.9883 3 14.7883 3 16.9883C3 18.1013 3.477 19.1053 4.219 19.8323C3.53857 20.2919 2.98073 20.9107 2.594 21.635C2.20726 22.3594 2.00335 23.1672 2 23.9883H4C4 22.3203 5.332 20.9883 7 20.9883C8.668 20.9883 10 22.3203 10 23.9883H12C11.9966 23.1672 11.7927 22.3594 11.406 21.635C11.0193 20.9107 10.4614 20.2919 9.781 19.8323C10.523 19.1053 11 18.1023 11 16.9883C11 14.7883 9.2 12.9883 7 12.9883ZM12 23.9883C11.375 24.8243 11 25.8753 11 26.9883H13C13 25.3203 14.332 23.9883 16 23.9883C17.668 23.9883 19 25.3203 19 26.9883H21C20.9986 25.9067 20.6478 24.8544 20 23.9883C19.66 23.5353 19.25 23.1483 18.781 22.8323C19.523 22.1053 20 21.1023 20 19.9883C20 17.7883 18.2 15.9883 16 15.9883C13.8 15.9883 12 17.7883 12 19.9883C12 21.1013 12.477 22.1053 13.219 22.8323C12.7504 23.1461 12.3382 23.537 12 23.9883ZM20 23.9883H22C22 22.3203 23.332 20.9883 25 20.9883C26.668 20.9883 28 22.3203 28 23.9883H30C29.9966 23.1672 29.7927 22.3594 29.406 21.635C29.0193 20.9107 28.4614 20.2919 27.781 19.8323C28.523 19.1053 29 18.1023 29 16.9883C29 14.7883 27.2 12.9883 25 12.9883C22.8 12.9883 21 14.7883 21 16.9883C21 18.1013 21.477 19.1053 22.219 19.8323C21.5386 20.2919 20.9807 20.9107 20.594 21.635C20.2073 22.3594 20.0034 23.1672 20 23.9883ZM7 14.9883C8.117 14.9883 9 15.8713 9 16.9883C9 18.1053 8.117 18.9883 7 18.9883C5.883 18.9883 5 18.1053 5 16.9883C5 15.8713 5.883 14.9883 7 14.9883ZM25 14.9883C26.117 14.9883 27 15.8713 27 16.9883C27 18.1053 26.117 18.9883 25 18.9883C23.883 18.9883 23 18.1053 23 16.9883C23 15.8713 23.883 14.9883 25 14.9883ZM16 17.9883C17.117 17.9883 18 18.8713 18 19.9883C18 21.1053 17.117 21.9883 16 21.9883C14.883 21.9883 14 21.1053 14 19.9883C14 18.8713 14.883 17.9883 16 17.9883Z" fill="url(#paint0_linear_4285_3356)"/>
<defs>
<linearGradient id="paint0_linear_4285_3356" x1="-12.0111" y1="19.4174" x2="8.70148" y2="46.249" gradientUnits="userSpaceOnUse">
<stop stop-color="#43CEA2"/>
<stop offset="0.931667" stop-color="#185A9D"/>
</linearGradient>
</defs>
</svg>
