<svg width="52" height="53" viewBox="0 0 52 53" fill="none" xmlns="http://www.w3.org/2000/svg">
<path d="M37.4258 12.1172C37.082 12.1111 36.7403 12.1736 36.4208 12.301C36.1014 12.4285 35.8105 12.6183 35.5651 12.8594C35.3198 13.1005 35.1249 13.3881 34.9919 13.7054C34.8589 14.0226 34.7903 14.3632 34.7903 14.7073C34.7903 15.0513 34.8589 15.3919 34.9919 15.7092C35.1249 16.0264 35.3198 16.314 35.5651 16.5551C35.8105 16.7963 36.1014 16.9861 36.4208 17.1135C36.7403 17.2409 37.082 17.3034 37.4258 17.2974C38.1046 17.2854 38.7516 17.0072 39.2274 16.5228C39.7032 16.0383 39.9698 15.3864 39.9698 14.7073C39.9698 14.0282 39.7032 13.3762 39.2274 12.8918C38.7516 12.4073 38.1046 12.1292 37.4258 12.1172ZM47.3526 17.3419C47.3107 15.5508 46.9756 13.7787 46.3604 12.0961C45.8114 10.6565 44.9572 9.35293 43.8564 8.27514C42.7878 7.16851 41.4816 6.31949 40.0366 5.79231C38.359 5.15808 36.5855 4.81503 34.7924 4.77796C32.5054 4.64844 31.7713 4.64844 25.9016 4.64844C20.031 4.64844 19.2978 4.64844 17.0099 4.77796C15.2166 4.81439 13.4434 5.15844 11.7658 5.79231C10.3235 6.32461 9.01841 7.17262 7.94592 8.27433C6.83965 9.34328 5.99089 10.6499 5.46384 12.0953C4.8298 13.7734 4.48686 15.5475 4.4498 17.3411C4.32031 19.6296 4.32031 20.3639 4.32031 26.2354C4.32031 32.1077 4.32031 32.8412 4.4498 35.1297C4.48703 36.9228 4.83016 38.6973 5.46384 40.3755C5.99068 41.8205 6.83963 43.1279 7.94592 44.1965C9.01832 45.2985 10.3234 46.1468 11.7658 46.6793C13.4434 47.3135 15.2169 47.6566 17.0099 47.6936C19.2978 47.8232 20.031 47.8232 25.9016 47.8232C31.7713 47.8232 32.5054 47.8232 34.7924 47.6936C36.5855 47.6566 38.359 47.3135 40.0366 46.6793C41.482 46.1515 42.7882 45.3031 43.8564 44.1965C44.9621 43.1227 45.8171 41.818 46.3604 40.3755C46.9756 38.6929 47.3108 36.9208 47.3526 35.1297C47.3526 32.8412 47.4821 32.1077 47.4821 26.2354C47.4821 20.3639 47.4821 19.6296 47.3526 17.3419ZM43.468 34.8707C43.4524 36.2409 43.2045 37.5986 42.7348 38.8859C42.3901 39.8252 41.8367 40.6739 41.1162 41.368C40.4161 42.0815 39.5691 42.634 38.6341 42.987C37.3473 43.4575 35.99 43.7058 34.62 43.7213C32.4617 43.8289 31.6637 43.8508 25.9874 43.8508C20.3118 43.8508 19.5131 43.8508 17.3555 43.7213C15.9329 43.7479 14.5164 43.5289 13.1683 43.0737C12.2744 42.7024 11.4665 42.1513 10.7946 41.4546C10.0785 40.7612 9.53205 39.9118 9.19789 38.9726C8.67086 37.6668 8.37853 36.2782 8.33438 34.8707C8.33438 32.7116 8.20489 31.9126 8.20489 26.2354C8.20489 20.5582 8.20489 19.7591 8.33438 17.6009C8.34409 16.1996 8.59983 14.8113 9.08945 13.499C9.46949 12.5879 10.0527 11.7758 10.7946 11.1247C11.4501 10.3823 12.2604 9.79259 13.1683 9.39715C14.4838 8.92243 15.8704 8.67443 17.2689 8.66371C19.4273 8.66371 20.2252 8.53419 25.9016 8.53419C31.5771 8.53419 32.3759 8.53419 34.5334 8.66371C35.9036 8.67909 37.2607 8.92681 38.5475 9.39715C39.5285 9.76131 40.4089 10.3534 41.1162 11.1247C41.8234 11.7877 42.376 12.5984 42.7348 13.499C43.2139 14.8137 43.4631 16.2013 43.468 17.6009C43.5764 19.7591 43.5975 20.5582 43.5975 26.2354C43.5975 31.9135 43.5764 32.7116 43.468 34.8707ZM25.9024 15.161C23.7138 15.1652 21.5756 15.8181 19.7579 17.0374C17.9402 18.2567 16.5246 19.9875 15.6899 22.0113C14.8552 24.035 14.639 26.2609 15.0684 28.4075C15.4979 30.5542 16.5538 32.5253 18.1027 34.0719C19.6517 35.6185 21.6242 36.6711 23.771 37.0968C25.9178 37.5225 28.1425 37.3021 30.1641 36.4634C32.1857 35.6248 33.9135 34.2056 35.1291 32.3851C36.3447 30.5647 36.9935 28.4246 36.9937 26.2354C36.9965 24.7786 36.7113 23.3356 36.1547 21.9894C35.598 20.6433 34.7808 19.4204 33.7501 18.3913C32.7194 17.3621 31.4954 16.5469 30.1486 15.9925C28.8018 15.4382 27.3587 15.1556 25.9024 15.161ZM25.9024 33.424C24.9587 33.424 24.0242 33.2381 23.1523 32.8768C22.2803 32.5156 21.4881 31.9861 20.8208 31.3185C20.1535 30.651 19.6241 29.8585 19.263 28.9864C18.9018 28.1142 18.7159 27.1794 18.7159 26.2354C18.7159 25.2914 18.9018 24.3566 19.263 23.4844C19.6241 22.6123 20.1535 21.8198 20.8208 21.1523C21.4881 20.4847 22.2803 19.9552 23.1523 19.594C24.0242 19.2327 24.9587 19.0468 25.9024 19.0468C27.8084 19.0468 29.6363 19.8041 30.984 21.1523C32.3317 22.5004 33.0889 24.3289 33.0889 26.2354C33.0889 28.1419 32.3317 29.9704 30.984 31.3185C29.6363 32.6667 27.8084 33.424 25.9024 33.424Z" fill="#333333"/>
</svg>
