<svg width="39" height="39" viewBox="0 0 39 39" fill="none" xmlns="http://www.w3.org/2000/svg">
<g clip-path="url(#clip0_4282_362)" filter="url(#filter0_d_4282_362)">
<path d="M11.6419 27.6549H16.9753C16.9753 29.1216 15.7753 30.3216 14.3086 30.3216C12.8419 30.3216 11.6419 29.1216 11.6419 27.6549ZM8.97526 26.3216H19.6419V23.6549H8.97526V26.3216ZM24.3086 13.6549C24.3086 18.7483 20.7619 21.4683 19.2819 22.3216H9.33526C7.85526 21.4683 4.30859 18.7483 4.30859 13.6549C4.30859 8.13495 8.78859 3.65495 14.3086 3.65495C19.8286 3.65495 24.3086 8.13495 24.3086 13.6549ZM21.6419 13.6549C21.6419 9.61495 18.3486 6.32161 14.3086 6.32161C10.2686 6.32161 6.97526 9.61495 6.97526 13.6549C6.97526 16.9483 8.96193 18.8416 10.1086 19.6549H18.5086C19.6553 18.8416 21.6419 16.9483 21.6419 13.6549ZM30.8019 10.8149L28.9753 11.6549L30.8019 12.4949L31.6419 14.3216L32.4819 12.4949L34.3086 11.6549L32.4819 10.8149L31.6419 8.98828L30.8019 10.8149ZM27.6419 8.98828L28.8953 6.24161L31.6419 4.98828L28.8953 3.73495L27.6419 0.988281L26.3886 3.73495L23.6419 4.98828L26.3886 6.24161L27.6419 8.98828Z" fill="url(#paint0_linear_4282_362)"/>
</g>
<defs>
<filter id="filter0_d_4282_362" x="-1.69141" y="0.988281" width="40" height="40" filterUnits="userSpaceOnUse" color-interpolation-filters="sRGB">
<feFlood flood-opacity="0" result="BackgroundImageFix"/>
<feColorMatrix in="SourceAlpha" type="matrix" values="0 0 0 0 0 0 0 0 0 0 0 0 0 0 0 0 0 0 127 0" result="hardAlpha"/>
<feOffset dy="4"/>
<feGaussianBlur stdDeviation="2"/>
<feComposite in2="hardAlpha" operator="out"/>
<feColorMatrix type="matrix" values="0 0 0 0 0 0 0 0 0 0 0 0 0 0 0 0 0 0 0.25 0"/>
<feBlend mode="normal" in2="BackgroundImageFix" result="effect1_dropShadow_4282_362"/>
<feBlend mode="normal" in="SourceGraphic" in2="effect1_dropShadow_4282_362" result="shape"/>
</filter>
<linearGradient id="paint0_linear_4282_362" x1="-10.7033" y1="19.2176" x2="20.6508" y2="48.889" gradientUnits="userSpaceOnUse">
<stop stop-color="#43CEA2"/>
<stop offset="0.931667" stop-color="#185A9D"/>
</linearGradient>
<clipPath id="clip0_4282_362">
<rect width="32" height="32" fill="white" transform="translate(2.30859 0.988281)"/>
</clipPath>
</defs>
</svg>
