<svg width="33" height="33" viewBox="0 0 33 33" fill="none" xmlns="http://www.w3.org/2000/svg">
<path d="M16.3086 2.98828L4.30859 6.98828V18.9883C4.30859 25.6164 9.68047 30.9883 16.3086 30.9883C22.9367 30.9883 28.3086 25.6164 28.3086 18.9883V6.98828L16.3086 2.98828ZM26.0586 18.9883C26.0586 24.3727 21.693 28.7383 16.3086 28.7383C10.9242 28.7383 6.55859 24.3727 6.55859 18.9883V8.67578L16.3086 5.23828L26.0586 8.67578V18.9883Z" fill="url(#paint0_linear_4282_3254)"/>
<path d="M12.134 15.8352C12.0297 15.7304 11.9058 15.6473 11.7693 15.5906C11.6328 15.5339 11.4865 15.5047 11.3387 15.5047C11.1909 15.5047 11.0446 15.5339 10.9081 15.5906C10.7716 15.6473 10.6477 15.7304 10.5434 15.8352C10.4386 15.9394 10.3555 16.0634 10.2988 16.1998C10.2421 16.3363 10.2129 16.4827 10.2129 16.6305C10.2129 16.7783 10.2421 16.9246 10.2988 17.0611C10.3555 17.1976 10.4386 17.3215 10.5434 17.4258L14.5871 21.4695L14.6528 21.5352C14.7514 21.634 14.8685 21.7124 14.9975 21.7659C15.1265 21.8193 15.2647 21.8469 15.4043 21.8469C15.5439 21.8469 15.6822 21.8193 15.8111 21.7659C15.9401 21.7124 16.0573 21.634 16.1559 21.5352L23.1403 14.5508C23.2391 14.4522 23.3175 14.335 23.371 14.206C23.4244 14.0771 23.452 13.9388 23.452 13.7992C23.452 13.6596 23.4244 13.5214 23.371 13.3924C23.3175 13.2634 23.2391 13.1463 23.1403 13.0477L23.0528 12.9602C22.9541 12.8613 22.837 12.7829 22.708 12.7295C22.5791 12.676 22.4408 12.6484 22.3012 12.6484C22.1616 12.6484 22.0233 12.676 21.8944 12.7295C21.7654 12.7829 21.6483 12.8613 21.5496 12.9602L15.4028 19.1039L12.134 15.8352Z" fill="url(#paint1_linear_4282_3254)"/>
<defs>
<linearGradient id="paint0_linear_4282_3254" x1="-7.70093" y1="20.389" x2="21.486" y2="43.5377" gradientUnits="userSpaceOnUse">
<stop stop-color="#43CEA2"/>
<stop offset="0.931667" stop-color="#185A9D"/>
</linearGradient>
<linearGradient id="paint1_linear_4282_3254" x1="3.58809" y1="18.3648" x2="13.0444" y2="30.9584" gradientUnits="userSpaceOnUse">
<stop stop-color="#43CEA2"/>
<stop offset="0.931667" stop-color="#185A9D"/>
</linearGradient>
</defs>
</svg>
